<svg width="18" height="10" viewBox="0 0 18 10" fill="none" xmlns="http://www.w3.org/2000/svg">
    <path d="M0.239761 8.42136L8.42117 0.239952C8.49715 0.163884 8.58738 0.103539 8.6867 0.0623665C8.78602 0.0211945 8.89248 3.8147e-06 9 3.8147e-06C9.10752 3.8147e-06 9.21398 0.0211945 9.3133 0.0623665C9.41262 0.103539 9.50285 0.163884 9.57884 0.239952L17.7602 8.42136C17.9138 8.57487 18 8.78309 18 9.00019C18 9.2173 17.9138 9.42551 17.7602 9.57903C17.6067 9.73254 17.3985 9.81879 17.1814 9.81879C16.9643 9.81879 16.7561 9.73254 16.6026 9.57903L9 1.97543L1.39743 9.57903C1.32142 9.65504 1.23118 9.71534 1.13186 9.75648C1.03254 9.79761 0.926096 9.81879 0.818596 9.81879C0.711096 9.81879 0.60465 9.79761 0.505333 9.75648C0.406017 9.71534 0.315775 9.65504 0.239761 9.57903C0.163748 9.50301 0.103451 9.41277 0.0623131 9.31345C0.0211754 9.21414 0 9.10769 0 9.00019C0 8.89269 0.0211754 8.78624 0.0623131 8.68693C0.103451 8.58761 0.163748 8.49737 0.239761 8.42136Z" fill="#181818"/>
</svg>
