<svg width="19" height="22" viewBox="0 0 19 22" fill="none" xmlns="http://www.w3.org/2000/svg">
    <path d="M17.9941 13.3691L10.1191 21.2441C10.0378 21.3254 9.94129 21.39 9.83507 21.434C9.72885 21.478 9.61499 21.5007 9.5 21.5007C9.38501 21.5007 9.27115 21.478 9.16493 21.434C9.0587 21.39 8.9622 21.3254 8.88094 21.2441L1.00594 13.3691C0.84175 13.2049 0.749512 12.9822 0.749512 12.75C0.749512 12.5178 0.84175 12.2951 1.00594 12.1309C1.17012 11.9668 1.3928 11.8745 1.625 11.8745C1.85719 11.8745 2.07988 11.9668 2.24406 12.1309L8.625 18.513V1.375C8.625 1.14294 8.71719 0.920376 8.88128 0.756282C9.04537 0.592187 9.26793 0.5 9.5 0.5C9.73206 0.5 9.95462 0.592187 10.1187 0.756282C10.2828 0.920376 10.375 1.14294 10.375 1.375V18.513L16.7559 12.1309C16.9201 11.9668 17.1428 11.8745 17.375 11.8745C17.6072 11.8745 17.8299 11.9668 17.9941 12.1309C18.1582 12.2951 18.2505 12.5178 18.2505 12.75C18.2505 12.9822 18.1582 13.2049 17.9941 13.3691Z" fill="#1753ED"/>
</svg>
