<svg width="18" height="10" viewBox="0 0 18 10" fill="none" xmlns="http://www.w3.org/2000/svg">
    <path
        d="M17.7602 1.48807L9.57883 9.66947C9.50285 9.74554 9.41262 9.80589 9.3133 9.84706C9.21398 9.88823 9.10752 9.90942 9 9.90942C8.89248 9.90942 8.78602 9.88823 8.6867 9.84706C8.58738 9.80589 8.49715 9.74554 8.42116 9.66947L0.239761 1.48807C0.0862446 1.33455 0 1.12634 0 0.909233C0 0.692128 0.0862446 0.483914 0.239761 0.330398C0.393277 0.176881 0.60149 0.0906372 0.818595 0.0906372C1.0357 0.0906372 1.24391 0.176881 1.39743 0.330398L9 7.93399L16.6026 0.330398C16.6786 0.254384 16.7688 0.194087 16.8681 0.152949C16.9675 0.11181 17.0739 0.0906372 17.1814 0.0906372C17.2889 0.0906372 17.3953 0.11181 17.4947 0.152949C17.594 0.194087 17.6842 0.254384 17.7602 0.330398C17.8363 0.406411 17.8965 0.496653 17.9377 0.595969C17.9788 0.695286 18 0.801733 18 0.909233C18 1.01673 17.9788 1.12318 17.9377 1.2225C17.8965 1.32181 17.8363 1.41205 17.7602 1.48807Z"
        fill="#181818" />
</svg>
