<svg width="152" height="117" viewBox="0 0 152 117" fill="none" xmlns="http://www.w3.org/2000/svg">
    <path
        d="M129.077 80.8392L129.034 76.6349L128.984 71.6248C128.902 71.6248 128.823 71.6368 128.737 71.6296C128.588 71.6176 128.446 71.5841 128.305 71.5505L122.621 82.3741L119.649 88.0293L126.816 84.535C126.693 84.1776 126.638 83.7915 126.669 83.3934C126.78 82.0623 127.806 81.0238 129.077 80.8392Z"
        fill="#3A71FD" />
    <path
        d="M117.337 43.5717L121.244 50.9441L122.928 48.9104C122.496 48.3683 122.256 47.6728 122.316 46.9317C122.374 46.1979 122.717 45.5599 123.218 45.0946L110.665 30.8366C110.646 30.8486 110.629 30.863 110.612 30.875L117.337 43.5717Z"
        fill="#3A71FD" />
    <path
        d="M94.6395 89.8831L92.9463 104.021C93.4499 104.203 93.956 104.357 94.4524 104.479C94.5556 104.503 94.6395 104.58 94.6755 104.683C94.8002 105.055 94.9465 105.436 95.1192 105.832L96.8747 99.0567L99.863 87.5352L97.1386 87.5735C96.9203 88.8207 95.889 89.7656 94.6395 89.8831Z"
        fill="#3A71FD" />
    <path
        d="M148.643 81.844C148.477 81.278 148.281 80.724 148.058 80.1916L147.708 83.3262L148.202 82.5467L148.643 81.844Z"
        fill="#3A71FD" />
    <path
        d="M97.4542 27.4189L105.767 27.9177L106.383 27.9537C106.546 27.1095 107.069 26.4092 107.789 26.0134L107.004 23.7638L104.891 17.6937C104.618 17.756 104.337 17.792 104.042 17.768C103.594 17.7296 103.189 17.5833 102.829 17.3675L98.3944 23.1762L96.5908 25.5386C97.0969 26.0254 97.4158 26.6874 97.4542 27.4189Z"
        fill="#3A71FD" />
    <path
        d="M102.46 90.7705L116.488 117.91C116.627 116.469 116.81 115.089 117.033 113.794C117.052 113.696 117.112 113.612 117.198 113.569C117.287 113.521 117.392 113.519 117.479 113.569C117.939 113.797 118.424 114.008 118.959 114.204L119.155 113.792L108.24 98.7425L102.46 90.7705Z"
        fill="#3A71FD" />
    <path
        d="M110.502 88.2883L111.248 90.3149L119.165 111.876L118.623 88.9646L111.821 86.8925C111.555 87.4992 111.087 87.9909 110.502 88.2883Z"
        fill="#3A71FD" />
    <path
        d="M91.7015 87.9501L80.3359 89.2811L69.2293 90.581C69.2293 90.6602 69.2389 90.7369 69.2341 90.8209C69.1693 91.6243 68.7664 92.3174 68.1836 92.7851L73.6781 101.462C77.2876 99.9585 80.5325 97.5937 83.0748 94.6126C83.1395 94.5359 83.2379 94.4951 83.3362 94.5047C83.3458 94.5047 83.3578 94.5047 83.3674 94.5071C83.4753 94.5287 83.5664 94.603 83.6048 94.7085C85.1013 98.8384 88.2719 102.129 92.3419 103.786L93.2604 96.1403L94.0111 89.8687C92.9127 89.7176 92.0301 88.955 91.7015 87.9501Z"
        fill="#3A71FD" />
    <path
        d="M127.309 71.0898L124.38 73.5361L111.581 84.235C111.919 84.7435 112.103 85.3551 112.051 86.0074C112.041 86.1057 112.015 86.1969 111.998 86.2928L113.741 86.8252L118.771 88.3602L120.73 84.626L127.707 71.3417C127.568 71.2673 127.436 71.1834 127.309 71.0898Z"
        fill="#3A71FD" />
    <path
        d="M54.6861 77.9635L58.8856 73.9751C58.3868 73.4187 58.1038 72.6704 58.1685 71.8694C58.1949 71.5552 58.2812 71.2626 58.4011 70.9892L41.8647 57.3571C41.7784 57.4387 41.6872 57.513 41.5913 57.5826L52.1175 77.3615C52.4173 77.2824 52.7339 77.2392 53.0625 77.2656C53.6908 77.3135 54.2473 77.5774 54.6861 77.9635Z"
        fill="#3A71FD" />
    <path
        d="M52.3253 84.3576L52.4835 82.8563C51.5578 82.7387 50.7831 82.1871 50.3634 81.4125L40.2065 85.7678C40.95 88.1853 42.0484 90.4589 43.4707 92.5359L50.8767 93.464L51.3563 93.524L52.3253 84.3576Z"
        fill="#3A71FD" />
    <path
        d="M148.636 90.6098L147.204 85.6453L142.213 99.2126C145.314 97.2028 147.576 94.1833 148.636 90.6098Z"
        fill="#3A71FD" />
    <path
        d="M119.823 113.471L127.661 114.123L129.621 114.286C131.072 113.766 132.436 113.034 133.679 112.099L122.56 94.9244L119.265 89.8328L119.823 113.471Z"
        fill="#3A71FD" />
    <path
        d="M50.026 79.8415C50.1075 78.8462 50.7023 78.0163 51.5273 77.5846L49.5991 73.9608L41.0467 57.892C40.6366 58.0695 40.1857 58.163 39.7108 58.1247C39.5693 58.1151 39.4398 58.0815 39.3079 58.0527L26.0596 86.1658L34.5904 84.0889C36.0774 83.2687 37.478 82.2781 38.7515 81.1509C38.8378 81.0742 38.9625 81.0526 39.0705 81.0958C39.1784 81.1366 39.2575 81.2373 39.2695 81.35C39.3247 81.8225 39.4038 82.3285 39.507 82.8897L42.4065 82.1846L50.038 80.3235C50.0212 80.1628 50.0116 80.0045 50.026 79.8415Z"
        fill="#3A71FD" />
    <path
        d="M148.491 56.1077L146.026 57.8129L134.528 65.7801L145.172 59.9066L149.767 57.3668L148.491 56.1077Z"
        fill="#3A71FD" />
    <path
        d="M127.676 66.3269L121.011 51.8651L102.362 56.0621C102.321 56.4291 102.221 56.772 102.053 57.0814L113.694 62.0507L126.475 67.5069C126.743 67.0009 127.168 66.5907 127.676 66.3269Z"
        fill="#3A71FD" />
    <path
        d="M66.1949 93.3991C65.7824 93.3631 65.3987 93.2384 65.0581 93.049L63.8134 94.8021L62.1489 97.1429L67.6699 103.119C69.5286 102.848 71.3489 102.369 73.0829 101.7L67.6483 93.1137C67.2118 93.3296 66.7153 93.4423 66.1949 93.3991Z"
        fill="#3A71FD" />
    <path
        d="M60.2524 100.325L58.7822 102.825C61.4372 103.398 64.1952 103.537 66.9149 103.223L61.8041 97.6897L60.2524 100.325Z"
        fill="#3A71FD" />
    <path
        d="M54.8109 98.6058L57.0581 102.383C57.4155 102.489 57.7776 102.587 58.1422 102.676L61.2816 97.3419L58.2357 96.3514L52.3311 94.428L54.8109 98.6058Z"
        fill="#3A71FD" />
    <path
        d="M37.2182 56.0046L15.18 57.1869C15.1776 57.2205 15.1848 57.2517 15.1824 57.2853C15.1081 58.1918 14.6044 58.9545 13.8945 59.415L23.8835 82.1703L25.5072 85.8685L38.7124 57.8441C37.9689 57.4843 37.4245 56.8104 37.2182 56.0046Z"
        fill="#3A71FD" />
    <path
        d="M105.482 17.4898L108.041 24.8431L108.37 25.7832C108.686 25.6921 109.019 25.6465 109.365 25.6753C109.398 25.6777 109.425 25.6897 109.456 25.6921L111.797 17.9743C110.988 17.6313 110.43 16.8615 110.372 15.9645L107.005 15.5856C106.813 16.437 106.237 17.1253 105.482 17.4898Z"
        fill="#3A71FD" />
    <path
        d="M60.7488 74.9033C60.2283 74.8626 59.7583 74.6707 59.3601 74.3877L55.1079 78.4289C55.4868 78.9541 55.6979 79.6016 55.6427 80.2972C55.614 80.6545 55.5132 80.9927 55.3645 81.2973L64.4518 88.6025C64.6964 88.3579 64.9818 88.1637 65.3008 88.0245L62.1254 77.8173L61.2164 74.8937C61.0581 74.9081 60.9047 74.9177 60.7488 74.9033Z"
        fill="#3A71FD" />
    <path
        d="M68.1981 27.9873C68.1693 28.3495 68.0662 28.6876 67.9151 28.997L69.0135 29.5966L81.9333 36.6405L75.9734 22.4328L75.2707 20.754C74.947 20.8499 74.6064 20.8955 74.2514 20.8643C73.7262 20.8235 73.2538 20.6293 72.8532 20.3439L68.0854 25.6705L67.6729 26.131C68.047 26.6539 68.2532 27.2966 68.1981 27.9873Z"
        fill="#3A71FD" />
    <path
        d="M75.8481 20.5142L82.6953 36.8371L90.0054 30.9229L92.2886 29.0738C91.9673 28.5725 91.7922 27.9729 91.8449 27.335C91.8641 27.0952 91.9217 26.8745 91.996 26.6563L82.3308 22.1019L76.865 19.5261C76.6108 19.9386 76.2655 20.2815 75.8481 20.5142Z"
        fill="#3A71FD" />
    <path
        d="M127.76 48.114C127.465 48.9294 126.813 49.565 126.002 49.8336L129.024 66.0151C129.082 66.0175 129.137 66.0079 129.195 66.0127C130.082 66.0846 130.83 66.5691 131.293 67.2598L140.385 60.9618L147.858 55.7814L127.76 48.114Z"
        fill="#3A71FD" />
    <path
        d="M108.078 83.2302L99.9644 58.5419C99.9572 58.5419 99.95 58.5467 99.9404 58.5467L100.576 86.8492L106.445 85.9067C106.437 85.7892 106.428 85.6717 106.437 85.5518C106.521 84.5013 107.183 83.6427 108.078 83.2302Z"
        fill="#3A71FD" />
    <path
        d="M58.7148 70.4328C59.1201 69.8836 59.7149 69.4975 60.396 69.3536L59.583 44.2791L59.3863 38.185C59.2976 38.185 59.2113 38.197 59.1225 38.1898C58.7124 38.1562 58.3335 38.0315 57.9953 37.8444L42.2959 53.7957C42.6221 54.2993 42.7972 54.9013 42.7468 55.544C42.706 56.0405 42.5285 56.4914 42.2695 56.8775L46.6153 60.4582L58.7148 70.4328Z"
        fill="#3A71FD" />
    <path
        d="M132.24 84.0935C132.06 85.1584 131.292 86.0026 130.299 86.3096L132.451 96.5792L135.391 110.609C138.048 107.928 139.631 104.414 139.866 100.654C139.873 100.539 139.943 100.436 140.048 100.39L140.147 100.349C140.288 100.285 140.43 100.217 140.571 100.15C140.835 100.021 141.099 99.884 141.353 99.7354L142.392 96.9125L146.8 84.9353L132.24 84.0935Z"
        fill="#3A71FD" />
    <path
        d="M148.747 73.9848C150.978 72.2988 152.184 69.5167 151.855 66.7179C151.755 65.8449 151.505 64.9911 151.109 64.1829C151.066 64.0941 151.066 63.991 151.114 63.9023C151.841 62.492 152.129 60.9139 151.946 59.3335C151.865 58.6595 151.697 57.988 151.436 57.3405L150.774 57.5899L150.575 57.6666L148.747 73.9848Z"
        fill="#3A71FD" />
    <path
        d="M127.091 85.0962L124.214 86.4992L119.383 88.8544L122.221 93.2361L134.179 111.708C134.414 111.516 134.639 111.319 134.86 111.116L129.684 86.4153C129.54 86.4249 129.399 86.4345 129.252 86.4225C128.327 86.3505 127.547 85.8301 127.091 85.0962Z"
        fill="#3A71FD" />
    <path
        d="M91.5721 86.8564C91.5865 86.6789 91.6225 86.5062 91.6656 86.3407L64.7565 74.6273L63.116 73.915C62.7755 74.3132 62.3342 74.6154 61.8281 74.776L65.8933 87.8349C66.1379 87.7869 66.3897 87.7605 66.6487 87.7821C67.8983 87.8829 68.8816 88.7966 69.1526 89.955L88.7061 87.667L91.5769 87.3288C91.5673 87.1777 91.5577 87.0171 91.5721 86.8564Z"
        fill="#3A71FD" />
    <path
        d="M61.2018 69.2912C61.6694 69.3295 62.0939 69.4902 62.4633 69.7229L76.8268 49.6106C76.1961 49.0422 75.8195 48.2051 75.8939 47.2962C75.9227 46.946 76.021 46.6246 76.1625 46.3249L66.0296 40.0724L61.4488 37.2448C61.0723 37.6693 60.5734 37.9691 60.0122 38.1082L60.3767 49.3707L61.0267 69.2936C61.0842 69.296 61.1418 69.2864 61.2018 69.2912Z"
        fill="#3A71FD" />
    <path
        d="M96.757 55.5321C96.757 55.5249 96.7618 55.5201 96.7618 55.5129L87.984 51.7955L81.1511 48.9007C80.6283 49.8264 79.6018 50.4212 78.4746 50.3301C78.0597 50.2965 77.676 50.1694 77.333 49.9751L75.4647 52.5917L62.9551 70.109C63.2285 70.3825 63.4467 70.7062 63.5882 71.0684L85.8542 61.7605L97.0808 57.067C96.8362 56.6113 96.7138 56.0861 96.757 55.5321Z"
        fill="#3A71FD" />
    <path
        d="M112.516 18.1615C112.475 18.1591 112.442 18.1471 112.401 18.1399L110.07 25.8337C110.521 25.992 110.919 26.2582 111.226 26.6035L117.972 22.3129L122.843 19.2143C122.769 18.9433 122.731 18.6579 122.755 18.3605C122.762 18.2598 122.788 18.1686 122.805 18.0727L114.9 16.6265C114.545 17.5907 113.591 18.2502 112.516 18.1615Z"
        fill="#3A71FD" />
    <path
        d="M148.939 89.4035C149.407 87.1803 149.386 84.8851 148.86 82.6691L147.582 84.6908L148.939 89.4035Z"
        fill="#3A71FD" />
    <path
        d="M131.669 68.0753C131.755 68.3847 131.799 68.7133 131.772 69.0515C131.731 69.5479 131.554 69.9988 131.295 70.3849L141.939 79.6256L146.997 84.0194L147.208 82.1367L147.548 79.1076C146.956 77.9588 146.234 76.8964 145.397 75.9466C145.325 75.8651 145.301 75.7476 145.337 75.6396C145.373 75.5341 145.462 75.4574 145.572 75.4334C146.452 75.2535 147.294 74.9201 148.071 74.4501L148.98 66.3222L149.913 58.0096L131.669 68.0753Z"
        fill="#3A71FD" />
    <path
        d="M107.072 14.962L110.42 15.3385C110.61 14.4463 111.293 13.7604 112.156 13.5494L111.437 7.40007C110.07 5.65649 108.137 4.46933 105.988 4.05682C105.95 4.04962 105.914 4.03523 105.88 4.01365C105.741 3.92731 105.599 3.84337 105.456 3.76422L104.801 12.2087C106.115 12.4605 107.072 13.6117 107.072 14.962Z"
        fill="#3A71FD" />
    <path
        d="M109.911 88.4994C109.626 88.5689 109.326 88.6097 109.017 88.5833C107.808 88.485 106.849 87.6312 106.542 86.528L100.824 87.4465L118.447 111.744L117.01 107.832L109.911 88.4994Z"
        fill="#3A71FD" />
    <path
        d="M104.173 12.1608L104.487 8.13639L104.849 3.46206C103.314 2.74736 101.624 2.46915 99.9448 2.66821C99.9448 2.66821 99.7985 2.6922 99.7937 2.6946C99.7217 2.70659 99.645 2.6874 99.585 2.64663C97.8199 1.51702 95.6854 1.02297 93.5964 1.2676C93.1072 1.32516 92.6059 1.42828 92.1143 1.57458L95.7213 5.4119L102.59 12.7196C103.039 12.3814 103.585 12.1824 104.173 12.1608Z"
        fill="#3A71FD" />
    <path
        d="M112.898 13.4822C113.778 13.5542 114.5 14.113 114.84 14.8661L117.075 14.0986L120.116 13.0553C118.668 9.92313 115.591 7.87016 112.113 7.77423L112.78 13.4846C112.816 13.4846 112.857 13.4774 112.898 13.4822Z"
        fill="#3A71FD" />
    <path
        d="M77.2179 17.4563L83.5374 16.7991L101.47 14.9381C101.47 14.8709 101.46 14.8037 101.465 14.7342C101.515 14.1226 101.762 13.5758 102.132 13.1417L91.3655 1.69212C88.8833 0.327479 86.0533 -0.226533 83.228 0.102037C82.8995 0.14041 82.5541 0.195571 82.2064 0.260326L76.3736 14.3025L75.8364 15.5952C76.5391 15.9861 77.0428 16.6648 77.2179 17.4563Z"
        fill="#3A71FD" />
    <path
        d="M69.9853 14.0819C69.9685 14.2738 69.9206 14.4536 69.8558 14.6263L72.3213 16.2572C72.8873 15.5809 73.7603 15.1755 74.7052 15.2523C74.8971 15.2691 75.0842 15.3026 75.2616 15.3554L80.123 3.64441L81.4589 0.430664C80.5691 0.656106 79.7081 0.970285 78.8879 1.36601C78.8016 1.40678 78.7008 1.40678 78.6145 1.36601C78.6049 1.36121 78.5953 1.35641 78.5833 1.35162L69.2227 12.3263C69.7359 12.734 70.0429 13.3816 69.9853 14.0819Z"
        fill="#3A71FD" />
    <path
        d="M151.117 56.6186C150.952 56.2996 150.765 55.9926 150.549 55.6928L150.554 55.8631L150.585 56.9136L151.117 56.6186Z"
        fill="#3A71FD" />
    <path
        d="M127.93 47.3849C127.928 47.4257 127.913 47.4616 127.909 47.5L128.271 47.6391L148.278 55.2706L148.309 55.0787L148.539 53.6445C148.491 53.5702 148.462 53.4886 148.477 53.4287C148.645 52.594 148.681 51.7498 148.582 50.9224C148.412 49.4594 147.834 48.0756 146.915 46.9196L128.206 47.0587L127.925 47.0611C127.928 47.1666 127.94 47.2746 127.93 47.3849Z"
        fill="#3A71FD" />
    <path
        d="M61.9147 6.75016C61.8667 7.32096 61.6532 7.83661 61.3223 8.25871L66.6489 12.3622C67.0447 12.0289 67.5675 11.8442 68.1215 11.8898C68.251 11.8994 68.3709 11.9257 68.4909 11.9569L76.4653 0.538516C74.7289 0.0324703 72.8966 -0.118626 71.0906 0.0924264C70.9803 0.104418 70.8724 0.123606 70.7645 0.140394L70.6709 0.15478L61.7324 5.53421C61.8763 5.91075 61.9506 6.32086 61.9147 6.75016Z"
        fill="#3A71FD" />
    <path
        d="M149.926 55.7143L149.905 54.8917C149.65 54.6159 149.377 54.3593 149.094 54.1243L148.859 55.5872L149.948 56.6665L149.926 55.7143Z"
        fill="#3A71FD" />
    <path
        d="M127.206 20.1281L134 27.877L144.33 39.6504C143.368 37.017 141.48 34.789 138.998 33.4076C138.902 33.3548 138.842 33.2517 138.837 33.1414C138.83 32.7912 138.806 32.4339 138.765 32.0813C138.291 28.0089 135.784 24.5362 132.06 22.7998C131.971 22.7566 131.909 22.6799 131.887 22.5863C131.774 22.0947 131.616 21.603 131.417 21.1234L131.362 21.0994L127.551 19.5309C127.457 19.7443 127.347 19.9482 127.206 20.1281Z"
        fill="#3A71FD" />
    <path
        d="M125.389 21.0538L125.413 38.9285L125.42 44.3631C126.605 44.4878 127.542 45.3368 127.837 46.4328L146.369 46.2937C145.981 45.8932 145.559 45.5358 145.108 45.2337C145.012 45.1689 144.957 45.0562 144.969 44.9387C145.064 44.0609 145.062 43.1711 144.961 42.2981C144.913 41.9072 144.844 41.5067 144.748 41.0726L143.386 39.5185L126.751 20.5549C126.362 20.8475 125.895 21.025 125.389 21.0538Z"
        fill="#3A71FD" />
    <path
        d="M0.707363 68.4303L0.426758 68.0777C0.851261 70.2889 1.58275 72.4091 2.61403 74.3973L3.58295 75.0328L8.61942 78.3329L0.707363 68.4303Z"
        fill="#3A71FD" />
    <path
        d="M56.5443 35.1534C56.5899 34.609 56.7937 34.1126 57.1007 33.7049L38.8831 15.7606C38.5473 16.0508 38.142 16.2499 37.7007 16.3578L39.1349 36.6812L40.2525 52.5245C40.8952 52.594 41.4636 52.8842 41.8977 53.3111L57.4844 37.475C56.8489 36.9066 56.4675 36.0672 56.5443 35.1534Z"
        fill="#3A71FD" />
    <path
        d="M129.607 71.5503L129.7 80.8151H129.705C131.125 80.9302 132.202 82.0838 132.276 83.4652L146.34 84.2758L135.375 74.7545L130.888 70.8596C130.533 71.2002 130.096 71.4352 129.607 71.5503Z"
        fill="#3A71FD" />
    <path
        d="M9.67881 57.8488L0.368526 59.5468C-0.0367905 61.8036 -0.108741 64.0988 0.157473 66.3724C0.169464 66.4828 0.186253 66.5931 0.203041 66.701L0.219829 66.8185L9.85868 78.8821L10.8804 69.2648L11.8853 59.8178C10.818 59.6284 9.9738 58.8537 9.67881 57.8488Z"
        fill="#3A71FD" />
    <path
        d="M100.589 112.54C100.628 112.569 100.661 112.602 100.685 112.648C102.34 115.629 103.767 118.984 104.926 122.622L116.38 119.143L116.385 119.078L100.366 88.0867L95.5337 106.724C96.7089 109.058 98.4525 111.065 100.589 112.54Z"
        fill="#3A71FD" />
    <path
        d="M12.5998 54.2489C12.9451 54.2777 13.2665 54.376 13.5639 54.5151L35.5109 15.9813C35.1752 15.7631 34.8898 15.4801 34.6763 15.1419L27.69 18.2957L19.6868 21.91C17.0631 24.7232 15.1564 28.1528 14.1779 31.8318C14.1611 31.9038 14.1179 31.9661 14.058 32.0069C8.17008 36.192 4.50304 42.9792 4.24403 50.1646C4.24403 50.2245 4.22484 50.2845 4.18887 50.3301C3.77156 50.932 3.36624 51.5796 2.9873 52.2583L9.69541 55.3689L10.0264 55.5224C10.5732 54.6902 11.5373 54.1626 12.5998 54.2489Z"
        fill="#3A71FD" />
    <path
        d="M10.2374 80.0813L10.0839 80.3907L9.18213 82.2086C12.4606 84.7125 16.3363 86.293 20.4135 86.8038L20.8691 86.7582L24.2963 86.4249L19.4421 84.2352L10.2374 80.0813Z"
        fill="#3A71FD" />
    <path
        d="M59.5757 32.5729C60.1825 32.6233 60.7245 32.8655 61.1562 33.23L63.6577 29.9755C62.9382 29.4119 62.5041 28.5101 62.5832 27.5292C62.5976 27.3326 62.6336 27.1407 62.6888 26.9584L39.4059 15.1347C39.3699 15.1875 39.3387 15.2426 39.3027 15.293L57.5228 33.2396C58.072 32.772 58.8011 32.5105 59.5757 32.5729Z"
        fill="#3A71FD" />
    <path
        d="M47.1523 96.7831C49.7401 99.1622 52.834 100.99 56.1604 102.105L52.9035 96.6224L51.5245 94.3032L47.1523 96.7831Z"
        fill="#3A71FD" />
    <path
        d="M3.27246 75.5747C4.68267 77.9442 6.52938 80.0787 8.67828 81.8151L8.97807 81.2108L9.68797 79.7814L3.27246 75.5747Z"
        fill="#3A71FD" />
    <path
        d="M65.1614 30.5679C64.8161 30.5391 64.4947 30.4408 64.1973 30.3017L61.5903 33.6953C61.9909 34.2277 62.2139 34.8969 62.1563 35.6092L81.1582 36.9306L79.1436 35.8322L67.5789 29.527C67.0129 30.2273 66.1256 30.6447 65.1614 30.5679Z"
        fill="#3A71FD" />
    <path
        d="M63.6269 90.8904C63.6077 90.7177 63.6005 90.5403 63.6173 90.3604C63.6557 89.8903 63.8188 89.4634 64.0562 89.0893L55.0266 81.8344C54.5637 82.4099 53.8778 82.7913 53.1127 82.868L51.9927 93.4782L56.2977 92.5213L63.6269 90.8904Z"
        fill="#3A71FD" />
    <path
        d="M37.2684 10.8225C37.8248 10.8681 38.3285 11.0792 38.7434 11.3933L41.8252 7.83423C39.7627 8.40743 37.8008 9.26602 35.9829 10.3956L36.2395 10.9353C36.5633 10.8393 36.9111 10.7938 37.2684 10.8225Z"
        fill="#3A71FD" />
    <path
        d="M47.8672 9.98793L56.4101 7.30901C56.3165 6.98763 56.2686 6.64947 56.2997 6.29691C56.4149 4.86751 57.5876 3.78587 58.9835 3.72351L59.1154 2.48358C58.6909 2.50996 58.2568 2.54594 57.8227 2.5987C53.8486 3.06158 50.0617 4.57732 46.8695 6.98043C46.8216 7.01881 46.7616 7.04039 46.6993 7.04279C46.222 7.06917 45.7495 7.10275 45.2699 7.16031C44.4976 7.25144 43.6966 7.39054 42.8859 7.57282L39.1997 11.8274C39.3844 12.0481 39.5259 12.2999 39.6362 12.5685L47.8672 9.98793Z"
        fill="#3A71FD" />
    <path
        d="M43.9673 93.2312C44.7827 94.3392 45.6917 95.3801 46.6726 96.3322L50.6562 94.073L48.2555 93.7708L43.9673 93.2312Z"
        fill="#3A71FD" />
    <path
        d="M15.8522 65.43L13.3364 59.698C13.0774 59.7939 12.7992 59.8467 12.5138 59.8587L12.1444 63.3171L10.4272 79.4769L15.411 81.7266L24.8795 85.998L15.8522 65.43Z"
        fill="#3A71FD" />
    <path
        d="M99.9131 85.2257L99.3447 59.8275L95.4043 84.475C96.4164 84.8731 97.1239 85.8252 97.1814 86.9429L98.3782 86.9261L99.9491 86.9045L99.9131 85.2257Z"
        fill="#3A71FD" />
    <path
        d="M95.4331 30.2634L96.1718 34.5803L99.316 52.9611C99.4719 52.9467 99.6326 52.9371 99.7933 52.9515C99.9899 52.9683 100.177 53.0042 100.357 53.057L107.031 33.1701L107.777 30.9445C106.928 30.4768 106.367 29.587 106.333 28.5797L97.4141 28.0449C97.227 29.1218 96.4452 29.9708 95.4331 30.2634Z"
        fill="#3A71FD" />
    <path
        d="M77.1362 18.9624L92.2672 26.095C92.8069 25.2244 93.7926 24.6704 94.8814 24.7591C95.3299 24.7951 95.7352 24.9414 96.095 25.1597L102.333 16.9862C101.935 16.6049 101.657 16.1132 101.534 15.5616L77.2825 18.0798C77.2825 18.1494 77.2921 18.2165 77.2849 18.2837C77.2657 18.5211 77.2082 18.7466 77.1362 18.9624Z"
        fill="#3A71FD" />
    <path
        d="M15.1352 56.5609L31.8755 55.6639L37.135 55.3809C37.1326 55.2826 37.1206 55.1866 37.1278 55.0883C37.2382 53.7261 38.3078 52.6684 39.6197 52.5197L37.0751 16.4322C36.9887 16.4322 36.9024 16.4442 36.8137 16.437C36.5522 16.4154 36.3076 16.3482 36.0726 16.2619L14.1016 54.8365C14.6412 55.261 15.0105 55.8726 15.1352 56.5609Z"
        fill="#3A71FD" />
    <path
        d="M82.6782 37.9357L79.9873 45.0179C80.9682 45.524 81.6038 46.5816 81.5102 47.7496C81.4934 47.9487 81.4575 48.1429 81.4023 48.3252L96.8931 54.887C96.9746 54.6424 97.0897 54.4169 97.2312 54.2083L96.9242 53.8629L82.6782 37.9357Z"
        fill="#3A71FD" />
    <path
        d="M97.6349 53.7236C97.9371 53.4359 98.2945 53.2104 98.6974 53.0785L94.8121 30.364C94.685 30.3712 94.5579 30.3832 94.426 30.3712C93.7401 30.316 93.1405 30.0091 92.6848 29.5582L83.022 37.3791L97.3423 53.3951L97.6349 53.7236Z"
        fill="#3A71FD" />
    <path
        d="M39.6851 14.5734L62.9416 26.3827C63.251 25.8335 63.7354 25.4114 64.3134 25.1692L62.4547 19.1614L59.4064 9.3187C59.2338 9.33789 59.0563 9.34508 58.8788 9.32829C57.9075 9.24915 57.0897 8.68075 56.646 7.8869L39.8098 13.1656C39.8481 13.391 39.8673 13.6213 39.8481 13.8563C39.829 14.1105 39.7666 14.348 39.6851 14.5734Z"
        fill="#3A71FD" />
    <path
        d="M123.081 19.809L111.598 27.1143C111.859 27.5844 111.991 28.136 111.946 28.714C111.893 29.3903 111.591 29.9851 111.149 30.4384L119.263 39.6527L123.724 44.7204C124.048 44.5333 124.41 44.4086 124.793 44.363L124.762 21.0082C124.038 20.8619 123.431 20.4182 123.081 19.809Z"
        fill="#3A71FD" />
    <path
        d="M76.4869 45.7876C77.0505 45.0705 77.9523 44.6364 78.9308 44.7156C79.0939 44.7276 79.2498 44.7635 79.4009 44.8019L82.1278 37.6261L62.0323 36.2279C61.9771 36.4054 61.9027 36.5733 61.8164 36.7316L76.4869 45.7876Z"
        fill="#3A71FD" />
    <path
        d="M108.357 31.189L105.583 39.4632L100.935 53.3063C101.707 53.7404 102.251 54.5174 102.362 55.4192L120.718 51.2869L116.128 42.6242L110.046 31.1458C109.691 31.2681 109.305 31.3233 108.907 31.2897C108.72 31.2753 108.535 31.2393 108.357 31.189Z"
        fill="#3A71FD" />
    <path
        d="M72.1815 68.1592L63.7538 71.6823C63.785 71.8909 63.8018 72.1068 63.7826 72.3274C63.7514 72.7088 63.6435 73.0709 63.478 73.3899L91.7302 85.6861L91.8981 85.758C92.4114 84.8035 93.457 84.1847 94.6082 84.2783C94.673 84.2831 94.7329 84.3046 94.7953 84.3142L98.9228 58.4915C98.3328 58.35 97.8172 58.0406 97.4406 57.6017L72.1815 68.1592Z"
        fill="#3A71FD" />
    <path
        d="M126.158 68.5957C126.172 68.423 126.205 68.2551 126.249 68.0944L101.683 57.6042C101.38 57.9471 101.002 58.2158 100.57 58.3788L106.194 75.4957L108.671 83.0384C108.93 82.9856 109.197 82.952 109.472 82.976C110.142 83.0288 110.729 83.3262 111.18 83.7555L120.677 75.817L126.839 70.6678C126.361 70.1114 126.095 69.3799 126.158 68.5957Z"
        fill="#3A71FD" />
</svg>
