<svg width="217" height="220" viewBox="0 0 217 220" fill="none" xmlns="http://www.w3.org/2000/svg">
    <path d="M163.321 92.5479L159.917 96.658L167.508 113.139L172.486 123.945C172.571 123.927 172.652 123.909 172.742 123.891L167.094 93.6631C166.797 93.69 166.487 93.708 166.177 93.6811C165.093 93.5956 164.113 93.1819 163.321 92.5479Z" fill="#3A71FD" fill-opacity="0.1"/>
    <path d="M78.2182 2.03496C77.6471 1.78763 77.094 1.57178 76.5454 1.37842L70.4117 10.1608L66.4409 15.8493L78.2182 2.03496Z" fill="#3A71FD" fill-opacity="0.1"/>
    <path d="M49.0335 179.405L53.0313 173.779C52.3657 173.181 51.8441 172.43 51.5518 171.571L33.8117 175.511L31.0371 176.131L38.9786 178.717L47.5451 181.5L49.0335 179.405Z" fill="#3A71FD" fill-opacity="0.1"/>
    <path d="M147.69 29.1151L151.818 28.9847L158.568 28.7689C158.384 27.6986 158.082 26.6239 157.678 25.5581L147.663 28.9982C147.668 29.0432 147.686 29.0747 147.69 29.1151Z" fill="#3A71FD" fill-opacity="0.1"/>
    <path d="M162.636 32.7664C163.458 31.0756 165.244 29.9694 167.227 30.1313C167.452 30.1493 167.668 30.2032 167.883 30.2527L168.036 29.9604C167.726 29.857 167.411 29.758 167.096 29.6726L148.911 30.2572L159.303 32.1594L162.636 32.7664Z" fill="#3A71FD" fill-opacity="0.1"/>
    <path d="M47.2113 9.33316L60.8683 1.1084C58.0218 1.9673 55.3416 3.31636 52.9718 5.08812C52.8459 5.18256 52.6885 5.22303 52.5221 5.19605C49.7251 4.71488 46.865 4.51702 44.0275 4.60246L43.7622 7.06224C45.2147 7.32306 46.4334 8.16398 47.2113 9.33316Z" fill="#3A71FD" fill-opacity="0.1"/>
    <path d="M6.2998 156.565C6.51565 157.617 6.76748 158.661 7.05078 159.672L19.4846 154.344L24.8718 152.032L6.2998 156.565Z" fill="#3A71FD" fill-opacity="0.1"/>
    <path d="M59.1107 29.8931C59.0433 29.8886 58.9848 29.8661 58.9219 29.8616L56.3047 47.0666C56.9747 47.2959 57.5818 47.6557 58.0944 48.1144L65.811 39.4939L67.7177 37.3669C66.7869 36.3281 66.2607 34.9251 66.3822 33.4276C66.4406 32.7171 66.6385 32.0516 66.9443 31.4535L63.8279 29.3894L62.4114 28.4541C61.6469 29.4209 60.4283 30.001 59.1107 29.8931Z" fill="#3A71FD" fill-opacity="0.1"/>
    <path d="M48.3064 29.3937L53.7116 46.864C54.1433 46.7875 54.5795 46.7471 55.0382 46.783C55.0786 46.783 55.1191 46.801 55.1596 46.8055L57.7857 29.5286C56.3962 28.8675 55.4833 27.4061 55.6183 25.7872C55.6722 25.1531 55.8881 24.5775 56.2073 24.0739L46.1479 16.3213C45.6712 16.708 45.1271 17.0183 44.5425 17.2207L48.3064 29.3937Z" fill="#3A71FD" fill-opacity="0.1"/>
    <path d="M174.02 151.574L173.939 143.691L173.845 134.297C173.692 134.297 173.544 134.319 173.382 134.306C173.103 134.283 172.838 134.22 172.572 134.157L161.915 154.452L156.343 165.055L169.78 158.503C169.551 157.833 169.447 157.109 169.506 156.363C169.712 153.867 171.637 151.92 174.02 151.574Z" fill="#3A71FD" fill-opacity="0.1"/>
    <path d="M152.008 81.6969L159.333 95.5203L162.49 91.707C161.68 90.6907 161.231 89.3866 161.343 87.997C161.451 86.621 162.094 85.4248 163.034 84.5524L139.497 57.8186C139.461 57.8411 139.43 57.8681 139.398 57.8905L152.008 81.6969Z" fill="#3A71FD" fill-opacity="0.1"/>
    <path d="M109.449 168.531L106.274 195.04C107.219 195.382 108.168 195.67 109.098 195.899C109.292 195.944 109.449 196.088 109.517 196.281C109.75 196.978 110.025 197.693 110.349 198.435L113.64 185.732L119.243 164.129L114.135 164.201C113.726 166.539 111.792 168.311 109.449 168.531Z" fill="#3A71FD" fill-opacity="0.1"/>
    <path d="M210.706 153.458C210.396 152.397 210.027 151.358 209.609 150.36L208.952 156.237L209.879 154.776L210.706 153.458Z" fill="#3A71FD" fill-opacity="0.1"/>
    <path d="M114.727 51.4103L130.313 52.3457L131.469 52.4131C131.775 50.8302 132.755 49.5171 134.104 48.7752L132.634 44.5571L128.672 33.1755C128.159 33.2925 127.633 33.3599 127.08 33.3149C126.239 33.243 125.479 32.9687 124.805 32.564L116.49 43.4554L113.108 47.8848C114.057 48.7976 114.655 50.0388 114.727 51.4103Z" fill="#3A71FD" fill-opacity="0.1"/>
    <path d="M124.114 170.195L150.416 221.082C150.677 218.379 151.018 215.793 151.437 213.365C151.473 213.181 151.585 213.023 151.747 212.942C151.913 212.852 152.111 212.848 152.273 212.942C153.137 213.369 154.045 213.765 155.048 214.134L155.416 213.36L134.951 185.143L124.114 170.195Z" fill="#3A71FD" fill-opacity="0.1"/>
    <path d="M139.191 165.541L140.59 169.341L155.434 209.767L154.418 166.809L141.665 162.924C141.166 164.061 140.289 164.983 139.191 165.541Z" fill="#3A71FD" fill-opacity="0.1"/>
    <path d="M103.941 164.907L82.6303 167.402L61.8054 169.84C61.8054 169.988 61.8233 170.132 61.8144 170.289C61.6929 171.796 60.9375 173.096 59.8447 173.972L70.147 190.242C76.9148 187.423 82.9991 182.989 87.7657 177.399C87.8872 177.255 88.0715 177.179 88.2559 177.197C88.2739 177.197 88.2964 177.197 88.3144 177.201C88.5167 177.242 88.6876 177.381 88.7595 177.579C91.5656 185.322 97.5104 191.492 105.142 194.599L106.864 180.264L108.271 168.504C106.212 168.221 104.557 166.791 103.941 164.907Z" fill="#3A71FD" fill-opacity="0.1"/>
    <path d="M170.705 133.294L165.214 137.881L141.214 157.941C141.848 158.894 142.195 160.041 142.096 161.264C142.078 161.449 142.028 161.619 141.997 161.799L145.266 162.798L154.696 165.676L158.37 158.674L171.451 133.766C171.19 133.626 170.943 133.469 170.705 133.294Z" fill="#3A71FD" fill-opacity="0.1"/>
    <path d="M34.5368 146.182L42.4108 138.704C41.4754 137.66 40.9448 136.257 41.0662 134.755C41.1157 134.166 41.2776 133.618 41.5024 133.105L10.4965 107.545C10.3347 107.698 10.1638 107.837 9.98389 107.968L29.7206 145.053C30.2827 144.905 30.8763 144.824 31.4924 144.873C32.6706 144.963 33.7138 145.458 34.5368 146.182Z" fill="#3A71FD" fill-opacity="0.1"/>
    <path d="M30.1103 158.171L30.4071 155.356C28.6713 155.135 27.2188 154.101 26.4319 152.649L7.3877 160.815C8.78172 165.348 10.8413 169.611 13.5079 173.505L27.3942 175.245L28.2936 175.358L30.1103 158.171Z" fill="#3A71FD" fill-opacity="0.1"/>
    <path d="M210.693 169.894L208.008 160.585L198.65 186.024C204.464 182.256 208.705 176.594 210.693 169.894Z" fill="#3A71FD" fill-opacity="0.1"/>
    <path d="M156.669 212.758L171.365 213.981L175.039 214.287C177.76 213.311 180.318 211.939 182.648 210.186L161.8 177.984L155.622 168.437L156.669 212.758Z" fill="#3A71FD" fill-opacity="0.1"/>
    <path d="M25.799 149.703C25.9518 147.837 27.0671 146.281 28.614 145.471L24.9985 138.677L8.9627 108.548C8.19374 108.88 7.34833 109.056 6.45795 108.984C6.19263 108.966 5.9498 108.903 5.70248 108.849L-19.1382 161.561L-3.14285 157.667C-0.354799 156.129 2.27137 154.272 4.6592 152.158C4.82109 152.014 5.05493 151.974 5.25728 152.055C5.45964 152.131 5.60804 152.32 5.63052 152.531C5.73395 153.417 5.88235 154.366 6.07572 155.418L11.5124 154.096L25.8214 150.607C25.79 150.305 25.772 150.009 25.799 149.703Z" fill="#3A71FD" fill-opacity="0.1"/>
    <path d="M210.422 105.202L205.799 108.399L184.241 123.338L204.198 112.325L212.814 107.563L210.422 105.202Z" fill="#3A71FD" fill-opacity="0.1"/>
    <path d="M171.394 124.363L158.897 97.2471L123.929 105.117C123.853 105.805 123.664 106.448 123.349 107.028L145.177 116.345L169.141 126.576C169.644 125.627 170.44 124.858 171.394 124.363Z" fill="#3A71FD" fill-opacity="0.1"/>
    <path d="M56.116 175.124C55.3425 175.056 54.623 174.822 53.9845 174.467L51.6506 177.754L48.5298 182.143L58.8816 193.349C62.3666 192.841 65.7797 191.942 69.031 190.687L58.8411 174.588C58.0227 174.993 57.0918 175.205 56.116 175.124Z" fill="#3A71FD" fill-opacity="0.1"/>
    <path d="M44.9734 188.111L42.2168 192.796C47.1948 193.871 52.3662 194.132 57.4656 193.543L47.8828 183.168L44.9734 188.111Z" fill="#3A71FD" fill-opacity="0.1"/>
    <path d="M34.7708 184.886L38.9844 191.969C39.6544 192.167 40.3335 192.351 41.017 192.517L46.9034 182.516L41.1924 180.659L30.1211 177.053L34.7708 184.886Z" fill="#3A71FD" fill-opacity="0.1"/>
    <path d="M1.78471 105.009L-39.537 107.226C-39.5414 107.289 -39.528 107.347 -39.5324 107.41C-39.6719 109.11 -40.6162 110.54 -41.9473 111.403L-23.2178 154.07L-20.1735 161.004L4.58625 108.458C3.19222 107.783 2.17144 106.52 1.78471 105.009Z" fill="#3A71FD" fill-opacity="0.1"/>
    <path d="M129.779 32.7934L134.577 46.5808L135.193 48.3436C135.787 48.1727 136.412 48.0872 137.059 48.1412C137.122 48.1457 137.172 48.1682 137.23 48.1727L141.619 33.7018C140.104 33.0587 139.056 31.6152 138.948 29.9334L132.634 29.2229C132.275 30.8193 131.195 32.1099 129.779 32.7934Z" fill="#3A71FD" fill-opacity="0.1"/>
    <path d="M45.9043 140.444C44.9284 140.368 44.047 140.008 43.3006 139.477L35.3276 147.055C36.0381 148.039 36.4339 149.253 36.3304 150.558C36.2765 151.228 36.0876 151.862 35.8088 152.433L52.8474 166.13C53.3061 165.672 53.8412 165.307 54.4393 165.046L48.4854 145.908L46.7811 140.426C46.4844 140.453 46.1966 140.471 45.9043 140.444Z" fill="#3A71FD" fill-opacity="0.1"/>
    <path d="M59.8715 52.4763C59.8176 53.1553 59.6242 53.7894 59.3409 54.3694L61.4005 55.4937L85.6251 68.7009L74.4504 42.0615L73.1328 38.9137C72.5257 39.0936 71.8871 39.179 71.2216 39.1206C70.2368 39.0441 69.3509 38.6799 68.6 38.1448L59.6602 48.1323L58.8867 48.9957C59.5882 49.976 59.975 51.1812 59.8715 52.4763Z" fill="#3A71FD" fill-opacity="0.1"/>
    <path d="M74.2158 38.4643L87.0544 69.0699L100.761 57.9807L105.042 54.5136C104.439 53.5737 104.111 52.4495 104.21 51.2533C104.246 50.8037 104.354 50.39 104.493 49.9807L86.3708 41.4412L76.1225 36.6116C75.6458 37.385 74.9983 38.0281 74.2158 38.4643Z" fill="#3A71FD" fill-opacity="0.1"/>
    <path d="M171.551 90.2139C170.998 91.7428 169.775 92.9345 168.255 93.4381L173.921 123.778C174.029 123.783 174.132 123.765 174.24 123.774C175.904 123.909 177.307 124.817 178.175 126.112L195.223 114.304L209.235 104.59L171.551 90.2139Z" fill="#3A71FD" fill-opacity="0.1"/>
    <path d="M134.647 156.057L119.434 109.766C119.42 109.766 119.407 109.775 119.389 109.775L120.58 162.843L131.584 161.075C131.571 160.855 131.553 160.635 131.571 160.41C131.728 158.44 132.969 156.83 134.647 156.057Z" fill="#3A71FD" fill-opacity="0.1"/>
    <path d="M42.0904 132.062C42.8503 131.032 43.9655 130.308 45.2427 130.038L43.7182 83.0236L43.3495 71.5971C43.1831 71.5971 43.0212 71.6195 42.8548 71.606C42.0859 71.5431 41.3753 71.3093 40.7413 70.9585L11.3048 100.867C11.9164 101.811 12.2447 102.94 12.1503 104.145C12.0738 105.076 11.741 105.922 11.2554 106.646L19.4037 113.359L42.0904 132.062Z" fill="#3A71FD" fill-opacity="0.1"/>
    <path d="M179.95 157.676C179.612 159.672 178.173 161.255 176.312 161.831L180.345 181.086L185.858 207.393C190.841 202.365 193.809 195.777 194.25 188.726C194.263 188.511 194.393 188.317 194.591 188.232L194.776 188.155C195.041 188.034 195.306 187.908 195.572 187.782C196.066 187.539 196.561 187.283 197.038 187.004L198.985 181.711L207.25 159.254L179.95 157.676Z" fill="#3A71FD" fill-opacity="0.1"/>
    <path d="M210.901 138.722C215.083 135.561 217.345 130.344 216.729 125.096C216.54 123.46 216.073 121.859 215.331 120.343C215.25 120.177 215.25 119.983 215.34 119.817C216.702 117.173 217.242 114.214 216.9 111.251C216.747 109.987 216.433 108.728 215.942 107.514L214.701 107.981L214.328 108.125L210.901 138.722Z" fill="#3A71FD" fill-opacity="0.1"/>
    <path d="M170.297 159.556L164.901 162.186L155.844 166.602L161.164 174.818L183.585 209.453C184.026 209.093 184.449 208.724 184.862 208.342L175.158 162.029C174.888 162.047 174.623 162.065 174.349 162.042C172.613 161.908 171.152 160.932 170.297 159.556Z" fill="#3A71FD" fill-opacity="0.1"/>
    <path d="M103.698 162.856C103.725 162.523 103.793 162.199 103.874 161.889L53.4189 139.926L50.343 138.591C49.7045 139.337 48.8771 139.904 47.9282 140.205L55.5504 164.691C56.0091 164.601 56.4812 164.551 56.9669 164.592C59.3098 164.781 61.1535 166.494 61.6616 168.666L98.3245 164.376L103.707 163.742C103.689 163.458 103.671 163.157 103.698 162.856Z" fill="#3A71FD" fill-opacity="0.1"/>
    <path d="M46.7534 129.921C47.6303 129.993 48.4262 130.295 49.1187 130.731L76.0504 93.0201C74.8678 91.9543 74.1618 90.3849 74.3012 88.6806C74.3551 88.024 74.5395 87.4214 74.8048 86.8593L55.8056 75.136L47.2166 69.8342C46.5106 70.6302 45.5752 71.1923 44.5229 71.4531L45.2065 92.5704L46.4251 129.926C46.533 129.93 46.641 129.912 46.7534 129.921Z" fill="#3A71FD" fill-opacity="0.1"/>
    <path d="M113.42 104.123C113.42 104.109 113.429 104.1 113.429 104.087L96.9703 97.1164L84.1587 91.6887C83.1784 93.4245 81.2537 94.5397 79.1402 94.3689C78.3622 94.3059 77.6427 94.0676 76.9997 93.7033L73.4966 98.6094L50.041 131.454C50.5537 131.967 50.9629 132.574 51.2282 133.253L92.977 115.801L114.027 107.001C113.568 106.146 113.339 105.161 113.42 104.123Z" fill="#3A71FD" fill-opacity="0.1"/>
    <path d="M142.968 34.0528C142.891 34.0483 142.828 34.0258 142.752 34.0123L138.381 48.4383C139.226 48.735 139.973 49.2342 140.548 49.8817L153.198 41.8369L162.331 36.0269C162.192 35.5188 162.12 34.9837 162.165 34.426C162.178 34.2372 162.228 34.0663 162.259 33.8864L147.438 31.1748C146.772 32.9825 144.982 34.2192 142.968 34.0528Z" fill="#3A71FD" fill-opacity="0.1"/>
    <path d="M211.262 167.632C212.139 163.463 212.098 159.16 211.114 155.005L208.717 158.796L211.262 167.632Z" fill="#3A71FD" fill-opacity="0.1"/>
    <path d="M178.88 127.641C179.042 128.221 179.123 128.838 179.073 129.472C178.997 130.402 178.664 131.248 178.178 131.972L198.135 149.298L207.619 157.537L208.015 154.007L208.653 148.327C207.543 146.173 206.189 144.181 204.62 142.4C204.485 142.247 204.44 142.027 204.507 141.824C204.575 141.627 204.741 141.483 204.948 141.438C206.598 141.1 208.177 140.475 209.634 139.594L211.338 124.354L213.087 108.768L178.88 127.641Z" fill="#3A71FD" fill-opacity="0.1"/>
    <path d="M132.76 28.0537L139.038 28.7597C139.393 27.0869 140.675 25.8008 142.294 25.4051L140.945 13.8751C138.382 10.6059 134.757 8.37994 130.728 7.60648C130.656 7.59299 130.589 7.56601 130.526 7.52554C130.265 7.36365 129.999 7.20626 129.73 7.05786L128.502 22.8913C130.966 23.3635 132.76 25.522 132.76 28.0537Z" fill="#3A71FD" fill-opacity="0.1"/>
    <path d="M138.085 165.937C137.549 166.067 136.987 166.144 136.407 166.094C134.141 165.91 132.342 164.309 131.766 162.24L121.046 163.963L154.089 209.52L151.395 202.186L138.085 165.937Z" fill="#3A71FD" fill-opacity="0.1"/>
    <path d="M127.325 22.8015L127.914 15.2558L128.593 6.49141C125.715 5.15135 122.545 4.62971 119.397 5.00295C119.397 5.00295 119.123 5.04791 119.114 5.05241C118.979 5.0749 118.835 5.03893 118.723 4.96248C115.413 2.84446 111.411 1.9181 107.494 2.37678C106.577 2.48471 105.637 2.67807 104.715 2.95238L111.478 10.1474L124.357 23.8493C125.198 23.2152 126.223 22.842 127.325 22.8015Z" fill="#3A71FD" fill-opacity="0.1"/>
    <path d="M143.683 25.2792C145.334 25.4141 146.687 26.4619 147.326 27.8739L151.517 26.4349L157.219 24.4788C154.503 18.6059 148.733 14.7565 142.213 14.5767L143.463 25.2837C143.53 25.2837 143.607 25.2702 143.683 25.2792Z" fill="#3A71FD" fill-opacity="0.1"/>
    <path d="M76.784 32.7307L88.6333 31.4986L122.256 28.009C122.256 27.8831 122.238 27.7572 122.247 27.6268C122.342 26.4801 122.805 25.4548 123.497 24.6409L103.311 3.17287C98.6568 0.614154 93.3505 -0.424621 88.0532 0.191449C87.4371 0.263399 86.7895 0.366826 86.1375 0.488242L75.2011 26.8174L74.1938 29.2412C75.5114 29.9742 76.4558 31.2468 76.784 32.7307Z" fill="#3A71FD" fill-opacity="0.1"/>
    <path d="M63.223 26.4035C63.1915 26.7633 63.1016 27.1005 62.9802 27.4243L67.6029 30.4822C68.6642 29.214 70.301 28.4541 72.0728 28.598C72.4326 28.6294 72.7833 28.6924 73.1161 28.7913L82.2312 6.83316L84.736 0.807373C83.0676 1.23008 81.4533 1.81916 79.9153 2.56115C79.7534 2.63759 79.5646 2.63759 79.4027 2.56115C79.3847 2.55215 79.3667 2.54316 79.3442 2.53416L61.793 23.1118C62.7553 23.8763 63.3309 25.0904 63.223 26.4035Z" fill="#3A71FD" fill-opacity="0.1"/>
    <path d="M215.345 106.16C215.035 105.562 214.684 104.986 214.279 104.424L214.288 104.743L214.347 106.713L215.345 106.16Z" fill="#3A71FD" fill-opacity="0.1"/>
    <path d="M171.87 88.847C171.866 88.9234 171.839 88.9909 171.83 89.0629L172.509 89.3237L210.021 103.633L210.08 103.273L210.512 100.584C210.422 100.444 210.368 100.292 210.395 100.179C210.709 98.6142 210.777 97.0313 210.593 95.4799C210.273 92.7368 209.189 90.1421 207.467 87.9746L172.387 88.2354L171.861 88.2399C171.866 88.4378 171.888 88.6401 171.87 88.847Z" fill="#3A71FD" fill-opacity="0.1"/>
    <path d="M48.0902 12.6566C48.0003 13.7268 47.6001 14.6937 46.9795 15.4851L56.967 23.1792C57.709 22.5542 58.6893 22.2079 59.7281 22.2934C59.9709 22.3113 60.1958 22.3608 60.4206 22.4193L75.3727 1.00972C72.1169 0.060882 68.6814 -0.222424 65.2952 0.1733C65.0884 0.195784 64.886 0.231761 64.6836 0.263239L64.5083 0.290214L47.7485 10.3767C48.0183 11.0827 48.1577 11.8516 48.0902 12.6566Z" fill="#3A71FD" fill-opacity="0.1"/>
    <path d="M213.112 104.465L213.071 102.922C212.595 102.405 212.082 101.924 211.552 101.483L211.111 104.226L213.152 106.25L213.112 104.465Z" fill="#3A71FD" fill-opacity="0.1"/>
    <path d="M170.511 37.7401L183.251 52.2694L202.619 74.3445C200.816 69.407 197.277 65.2294 192.622 62.6392C192.442 62.5403 192.33 62.3469 192.321 62.1401C192.308 61.4835 192.263 60.8135 192.186 60.1524C191.296 52.5168 186.597 46.0053 179.613 42.7496C179.447 42.6686 179.33 42.5247 179.289 42.3494C179.078 41.4275 178.781 40.5056 178.408 39.6063L178.304 39.5613L171.159 36.6204C170.983 37.0206 170.777 37.4028 170.511 37.7401Z" fill="#3A71FD" fill-opacity="0.1"/>
    <path d="M167.104 39.4759L167.149 72.991L167.162 83.1809C169.384 83.4147 171.142 85.0066 171.695 87.0617L206.443 86.8008C205.714 86.0499 204.923 85.3798 204.077 84.8132C203.897 84.6918 203.794 84.4805 203.816 84.2601C203.996 82.6143 203.992 80.9459 203.803 79.3091C203.713 78.5761 203.583 77.8251 203.403 77.0112L200.848 74.0972L169.658 38.5405C168.93 39.0891 168.053 39.4219 167.104 39.4759Z" fill="#3A71FD" fill-opacity="0.1"/>
    <path d="M38.0208 65.9126C38.1062 64.8919 38.4885 63.961 39.0641 63.1965L4.90592 29.551C4.27636 30.0951 3.51639 30.4684 2.68896 30.6707L5.37809 68.7771L7.47362 98.4834C8.67878 98.6138 9.74454 99.1579 10.5585 99.9584L39.7836 70.2656C38.5919 69.1999 37.8769 67.6259 38.0208 65.9126Z" fill="#3A71FD" fill-opacity="0.1"/>
    <path d="M175.014 134.157L175.189 151.529H175.198C177.86 151.744 179.879 153.907 180.019 156.498L206.388 158.018L185.829 140.165L177.415 132.862C176.749 133.501 175.931 133.941 175.014 134.157Z" fill="#3A71FD" fill-opacity="0.1"/>
    <path d="M120.605 211.013C120.677 211.067 120.74 211.13 120.785 211.215C123.888 216.805 126.564 223.096 128.736 229.918L150.213 223.393L150.222 223.271L120.187 165.163L111.126 200.108C113.329 204.483 116.599 208.247 120.605 211.013Z" fill="#3A71FD" fill-opacity="0.1"/>
    <path d="M43.7048 61.0744C44.8425 61.1688 45.8588 61.623 46.6683 62.3065L51.3585 56.2043C50.0094 55.1475 49.1955 53.4567 49.3439 51.6175C49.3709 51.2487 49.4383 50.889 49.5418 50.5472L5.88624 28.3777C5.81879 28.4766 5.76032 28.58 5.69287 28.6745L39.8555 62.3245C40.8853 61.4476 42.2523 60.9574 43.7048 61.0744Z" fill="#3A71FD" fill-opacity="0.1"/>
    <path d="M20.4106 181.469C25.2628 185.929 31.0637 189.356 37.3009 191.447L31.1941 181.167L28.6084 176.819L20.4106 181.469Z" fill="#3A71FD" fill-opacity="0.1"/>
    <path d="M54.1778 57.3149C53.5302 57.261 52.9276 57.0766 52.37 56.8158L47.4819 63.1788C48.2329 64.1771 48.6511 65.4318 48.5432 66.7673L84.1718 69.2451L80.3945 67.1855L58.7106 55.3633C57.6493 56.6764 55.9855 57.4588 54.1778 57.3149Z" fill="#3A71FD" fill-opacity="0.1"/>
    <path d="M51.3001 170.42C51.2641 170.096 51.2506 169.763 51.2821 169.426C51.3541 168.545 51.6599 167.744 52.105 167.043L35.1744 153.44C34.3065 154.519 33.0204 155.234 31.5859 155.378L29.4858 175.272L37.5577 173.478L51.3001 170.42Z" fill="#3A71FD" fill-opacity="0.1"/>
    <path d="M1.87858 20.2923C2.92185 20.3777 3.86619 20.7735 4.64414 21.3625L10.4226 14.6892C6.55532 15.764 2.87688 17.3738 -0.531738 19.4919L-0.0505812 20.5036C0.556495 20.3238 1.20854 20.2383 1.87858 20.2923Z" fill="#3A71FD" fill-opacity="0.1"/>
    <path d="M21.7512 18.7272L37.769 13.7042C37.5936 13.1016 37.5037 12.4675 37.5621 11.8065C37.778 9.12637 39.977 7.09829 42.5941 6.98137L42.8415 4.65649C42.0455 4.70596 41.2316 4.77341 40.4176 4.87234C32.9663 5.74024 25.8658 8.58225 19.8805 13.0881C19.7905 13.1601 19.6781 13.2005 19.5612 13.205C18.6663 13.2545 17.7804 13.3175 16.8811 13.4254C15.4331 13.5963 13.9311 13.8571 12.4112 14.1988L5.49951 22.1763C5.84577 22.59 6.11108 23.0621 6.31794 23.5658L21.7512 18.7272Z" fill="#3A71FD" fill-opacity="0.1"/>
    <path d="M14.4385 174.809C15.9674 176.886 17.6717 178.838 19.5109 180.623L26.9802 176.387L22.4789 175.821L14.4385 174.809Z" fill="#3A71FD" fill-opacity="0.1"/>
    <path d="M119.337 159.799L118.272 112.177L110.883 158.391C112.781 159.137 114.108 160.923 114.215 163.018L116.459 162.987L119.405 162.946L119.337 159.799Z" fill="#3A71FD" fill-opacity="0.1"/>
    <path d="M110.938 56.7438L112.323 64.8382L118.218 99.3021C118.51 99.2751 118.812 99.2571 119.113 99.2841C119.482 99.3156 119.832 99.3831 120.17 99.482L132.684 62.194L134.083 58.0209C132.491 57.144 131.439 55.4757 131.376 53.587L114.652 52.5842C114.301 54.6033 112.835 56.1952 110.938 56.7438Z" fill="#3A71FD" fill-opacity="0.1"/>
    <path d="M76.6309 35.5548L105.002 48.9284C106.013 47.2961 107.862 46.2573 109.903 46.4237C110.744 46.4911 111.504 46.7654 112.179 47.1747L123.875 31.8494C123.128 31.1344 122.607 30.2125 122.377 29.1782L76.9052 33.8999C76.9052 34.0303 76.9232 34.1562 76.9097 34.2822C76.8737 34.7273 76.7658 35.1501 76.6309 35.5548Z" fill="#3A71FD" fill-opacity="0.1"/>
    <path d="M-39.6214 106.052L-8.23333 104.37L1.62829 103.84C1.62379 103.655 1.60131 103.475 1.6148 103.291C1.82165 100.737 3.82725 98.7535 6.28703 98.4747L1.51587 30.8105C1.35398 30.8105 1.19209 30.833 1.0257 30.8195C0.535545 30.779 0.0768661 30.6531 -0.363827 30.4912L-41.5596 102.819C-40.5478 103.615 -39.8553 104.761 -39.6214 106.052Z" fill="#3A71FD" fill-opacity="0.1"/>
    <path d="M87.022 71.1294L81.9766 84.4086C83.8158 85.3575 85.0074 87.3406 84.8321 89.5305C84.8006 89.9038 84.7331 90.268 84.6297 90.6098L113.675 102.913C113.828 102.455 114.044 102.032 114.309 101.641L113.733 100.993L87.022 71.1294Z" fill="#3A71FD" fill-opacity="0.1"/>
    <path d="M115.066 100.732C115.632 100.192 116.303 99.7697 117.058 99.5224L109.773 56.9326C109.535 56.9461 109.296 56.9686 109.049 56.9461C107.763 56.8426 106.639 56.267 105.784 55.4216L87.6665 70.0859L114.517 100.116L115.066 100.732Z" fill="#3A71FD" fill-opacity="0.1"/>
    <path d="M6.40967 27.3251L50.0157 49.4676C50.5958 48.4379 51.5042 47.6464 52.5879 47.1922L49.1029 35.9276L43.3874 17.4725C43.0636 17.5084 42.7308 17.5219 42.398 17.4905C40.5768 17.3421 39.0434 16.2763 38.2115 14.7878L6.6435 24.6854C6.71545 25.1081 6.75143 25.5398 6.71546 25.9805C6.67948 26.4572 6.56256 26.9024 6.40967 27.3251Z" fill="#3A71FD" fill-opacity="0.1"/>
    <path d="M162.778 37.1418L141.247 50.8393C141.737 51.7207 141.984 52.7549 141.899 53.8387C141.8 55.1068 141.233 56.222 140.406 57.0719L155.619 74.3489L163.983 83.8507C164.59 83.5 165.269 83.2662 165.988 83.1807L165.93 39.3903C164.572 39.116 163.434 38.284 162.778 37.1418Z" fill="#3A71FD" fill-opacity="0.1"/>
    <path d="M75.4131 85.8517C76.4698 84.5072 78.1606 83.6932 79.9953 83.8416C80.3011 83.8641 80.5934 83.9316 80.8768 84.0035L85.9897 70.5489L48.3105 67.9272C48.2071 68.26 48.0676 68.5748 47.9058 68.8716L75.4131 85.8517Z" fill="#3A71FD" fill-opacity="0.1"/>
    <path d="M135.17 58.4796L129.967 73.9938L121.252 99.9497C122.7 100.764 123.721 102.221 123.928 103.911L158.347 96.1633L149.74 79.9207L138.336 58.3987C137.67 58.628 136.946 58.7314 136.2 58.6685C135.849 58.6415 135.503 58.5741 135.17 58.4796Z" fill="#3A71FD" fill-opacity="0.1"/>
    <path d="M67.3406 127.799L51.5386 134.404C51.5971 134.796 51.6286 135.2 51.5926 135.614C51.5341 136.329 51.3318 137.008 51.0215 137.606L103.995 160.662L104.309 160.797C105.272 159.007 107.232 157.847 109.391 158.022C109.512 158.031 109.625 158.071 109.741 158.089L117.481 109.672C116.374 109.406 115.408 108.826 114.702 108.003L67.3406 127.799Z" fill="#3A71FD" fill-opacity="0.1"/>
    <path d="M168.545 128.617C168.572 128.293 168.635 127.979 168.716 127.677L122.655 108.008C122.088 108.651 121.378 109.155 120.568 109.461L131.113 141.555L135.759 155.697C136.244 155.598 136.744 155.535 137.261 155.58C138.515 155.679 139.617 156.237 140.462 157.042L158.27 142.157L169.822 132.502C168.928 131.459 168.428 130.088 168.545 128.617Z" fill="#3A71FD" fill-opacity="0.1"/>
</svg>
