<svg width="339" height="390" viewBox="0 0 339 390" fill="none" xmlns="http://www.w3.org/2000/svg">
    <path
        d="M326.284 130.541L321.482 136.338L332.189 159.585L339.211 174.827C339.331 174.802 339.446 174.777 339.572 174.751L331.606 132.114C331.187 132.152 330.749 132.177 330.312 132.139C328.783 132.019 327.4 131.435 326.284 130.541Z"
        fill="#3A71FD" />
    <path
        d="M206.244 2.87028C205.439 2.52142 204.659 2.21696 203.885 1.94421L195.233 14.332L189.632 22.3558L206.244 2.87028Z"
        fill="#3A71FD" />
    <path
        d="M165.079 253.055L170.718 245.12C169.779 244.276 169.044 243.217 168.631 242.005L143.608 247.562L139.695 248.437L150.896 252.084L162.98 256.011L165.079 253.055Z"
        fill="#3A71FD" />
    <path
        d="M304.236 41.0676L310.059 40.8837L319.579 40.5792C319.319 39.0696 318.894 37.5536 318.323 36.0504L304.198 40.9027C304.204 40.9661 304.229 41.0105 304.236 41.0676Z"
        fill="#3A71FD" />
    <path d="M55.4409 54.6161L90.8852 38.6065L78.2818 41.3403C69.8457 44.0234 62.0122 48.5839 55.4409 54.6161Z"
        fill="#3A71FD" />
    <path
        d="M325.317 46.2177C326.477 43.8328 328.996 42.2724 331.793 42.5007C332.11 42.5261 332.414 42.6022 332.719 42.672L332.934 42.2597C332.497 42.1138 332.053 41.9743 331.609 41.8538L305.958 42.6783L320.617 45.3614L325.317 46.2177Z"
        fill="#3A71FD" />
    <path
        d="M162.508 13.1649L181.772 1.56372C177.756 2.77522 173.976 4.6781 170.633 7.17721C170.456 7.31042 170.234 7.3675 169.999 7.32945C166.054 6.65075 162.02 6.37166 158.017 6.49218L157.643 9.96175C159.692 10.3296 161.411 11.5158 162.508 13.1649Z"
        fill="#3A71FD" />
    <path
        d="M25.2995 150.299C25.3566 149.601 25.5405 148.948 25.7689 148.32L7.10798 139.675C4.43761 144.743 2.49034 150.134 1.31689 155.741L19.3625 152.449L25.3249 151.358C25.2995 151.016 25.2678 150.661 25.2995 150.299Z"
        fill="#3A71FD" />
    <path
        d="M104.801 220.839C105.106 222.323 105.461 223.795 105.861 225.222L123.399 217.705L130.998 214.445L104.801 220.839Z"
        fill="#3A71FD" />
    <path
        d="M179.293 42.1647C179.198 42.1583 179.116 42.1266 179.027 42.1203L175.335 66.3883C176.281 66.7118 177.137 67.2192 177.86 67.8662L188.744 55.7068L191.434 52.7066C190.121 51.2414 189.379 49.2624 189.55 47.1502C189.632 46.148 189.912 45.2093 190.343 44.3657L185.947 41.4543L183.949 40.1349C182.871 41.4987 181.152 42.3169 179.293 42.1647Z"
        fill="#3A71FD" />
    <path
        d="M164.053 41.4606L171.677 66.1028C172.286 65.995 172.901 65.9379 173.548 65.9887C173.605 65.9887 173.662 66.014 173.719 66.0204L177.424 41.6508C175.464 40.7184 174.176 38.657 174.366 36.3735C174.442 35.4792 174.747 34.6673 175.197 33.9569L161.008 23.0217C160.336 23.5672 159.568 24.0048 158.744 24.2903L164.053 41.4606Z"
        fill="#3A71FD" />
    <path
        d="M341.375 213.798L341.261 202.679L341.128 189.429C340.912 189.429 340.703 189.46 340.474 189.441C340.081 189.41 339.707 189.321 339.333 189.232L324.3 217.858L316.441 232.814L335.394 223.573C335.07 222.628 334.924 221.606 335.007 220.553C335.298 217.033 338.013 214.287 341.375 213.798Z"
        fill="#3A71FD" />
    <path
        d="M310.326 115.236L320.659 134.734L325.111 129.355C323.97 127.922 323.335 126.082 323.494 124.122C323.646 122.181 324.553 120.494 325.879 119.263L292.68 81.5547C292.629 81.5865 292.585 81.6245 292.541 81.6562L310.326 115.236Z"
        fill="#3A71FD" />
    <path
        d="M250.296 237.717L245.818 275.109C247.15 275.591 248.489 275.997 249.802 276.32C250.074 276.384 250.296 276.587 250.392 276.859C250.721 277.843 251.108 278.851 251.565 279.898L256.208 261.979L264.111 231.507L256.906 231.609C256.329 234.907 253.601 237.406 250.296 237.717Z"
        fill="#3A71FD" />
    <path
        d="M257.74 72.5156L279.725 73.835L281.355 73.9301C281.787 71.6974 283.169 69.8453 285.072 68.7987L282.998 62.849L277.41 46.7951C276.687 46.96 275.945 47.0551 275.164 46.9917C273.978 46.8902 272.906 46.5033 271.955 45.9324L260.227 61.295L255.457 67.5428C256.795 68.8304 257.639 70.5811 257.74 72.5156Z"
        fill="#3A71FD" />
    <path
        d="M270.981 240.064L308.081 311.841C308.449 308.029 308.931 304.381 309.521 300.956C309.571 300.696 309.73 300.474 309.958 300.36C310.193 300.233 310.472 300.227 310.7 300.36C311.918 300.963 313.199 301.521 314.614 302.041L315.134 300.95L286.267 261.148L270.981 240.064Z"
        fill="#3A71FD" />
    <path
        d="M292.249 233.499L294.222 238.859L315.16 295.882L313.726 235.288L295.738 229.808C295.034 231.412 293.797 232.713 292.249 233.499Z"
        fill="#3A71FD" />
    <path
        d="M242.526 232.605L212.467 236.125L183.093 239.563C183.093 239.772 183.119 239.975 183.106 240.197C182.935 242.322 181.869 244.155 180.328 245.392L194.859 268.341C204.405 264.364 212.987 258.11 219.711 250.226C219.882 250.023 220.142 249.915 220.402 249.94C220.428 249.94 220.459 249.94 220.485 249.946C220.77 250.003 221.011 250.2 221.113 250.479C225.071 261.402 233.456 270.104 244.22 274.487L246.649 254.266L248.635 237.679C245.73 237.28 243.395 235.263 242.526 232.605Z"
        fill="#3A71FD" />
    <path
        d="M336.698 188.014L328.954 194.484L295.102 222.78C295.996 224.124 296.484 225.742 296.345 227.467C296.319 227.727 296.25 227.968 296.205 228.222L300.817 229.63L314.118 233.689L319.3 223.813L337.751 188.68C337.384 188.483 337.035 188.261 336.698 188.014Z"
        fill="#3A71FD" />
    <path
        d="M144.63 206.193L155.737 195.645C154.418 194.173 153.669 192.194 153.84 190.076C153.91 189.245 154.139 188.471 154.456 187.748L110.721 151.695C110.493 151.91 110.252 152.107 109.998 152.291L137.837 204.601C138.63 204.392 139.467 204.278 140.336 204.347C141.998 204.474 143.47 205.172 144.63 206.193Z"
        fill="#3A71FD" />
    <path
        d="M138.387 223.104L138.805 219.133C136.357 218.822 134.308 217.363 133.198 215.315L106.336 226.833C108.302 233.227 111.207 239.24 114.969 244.733L134.556 247.188L135.824 247.346L138.387 223.104Z"
        fill="#3A71FD" />
    <path
        d="M316.902 300.1L337.63 301.825L342.813 302.257C346.65 300.88 350.259 298.946 353.545 296.472L324.139 251.05L315.424 237.584L316.902 300.1Z"
        fill="#3A71FD" />
    <path
        d="M132.305 211.159C132.521 208.527 134.094 206.333 136.276 205.191L131.176 195.607L108.557 153.109C107.473 153.578 106.28 153.826 105.024 153.724C104.65 153.699 104.308 153.61 103.959 153.534L68.9204 227.886L91.4822 222.393C95.4148 220.224 99.1191 217.604 102.487 214.623C102.716 214.42 103.045 214.363 103.331 214.477C103.616 214.585 103.826 214.851 103.857 215.149C104.003 216.399 104.212 217.737 104.485 219.221L112.154 217.357L132.337 212.434C132.293 212.009 132.267 211.591 132.305 211.159Z"
        fill="#3A71FD" />
    <path
        d="M337.671 175.417L320.044 137.169L270.721 148.269C270.613 149.24 270.347 150.147 269.903 150.965L300.691 164.108L334.493 178.538C335.203 177.199 336.326 176.115 337.671 175.417Z"
        fill="#3A71FD" />
    <path
        d="M175.068 247.016C173.977 246.921 172.962 246.591 172.062 246.09L168.77 250.727L164.368 256.917L178.969 272.724C183.885 272.007 188.699 270.739 193.285 268.969L178.912 246.261C177.758 246.832 176.445 247.13 175.068 247.016Z"
        fill="#3A71FD" />
    <path
        d="M159.352 265.335L155.463 271.944C162.485 273.46 169.779 273.828 176.972 272.997L163.455 258.364L159.352 265.335Z"
        fill="#3A71FD" />
    <path
        d="M144.96 260.787L150.904 270.777C151.849 271.056 152.807 271.316 153.771 271.551L162.074 257.444L154.018 254.824L138.402 249.737L144.96 260.787Z"
        fill="#3A71FD" />
    <path
        d="M98.4325 148.117L40.1474 151.244C40.141 151.333 40.1601 151.416 40.1537 151.504C39.9571 153.902 38.6251 155.919 36.7476 157.137L63.1659 217.319L67.46 227.099L102.384 152.982C100.418 152.031 98.978 150.248 98.4325 148.117Z"
        fill="#3A71FD" />
    <path
        d="M278.972 46.2561L285.74 65.7035L286.609 68.1899C287.446 67.9489 288.327 67.8284 289.241 67.9045C289.33 67.9108 289.399 67.9425 289.482 67.9489L295.673 47.5373C293.535 46.6303 292.057 44.5942 291.905 42.222L282.999 41.2198C282.492 43.4715 280.97 45.292 278.972 46.2561Z"
        fill="#3A71FD" />
    <path
        d="M160.665 198.1C159.288 197.992 158.045 197.484 156.992 196.736L145.746 207.424C146.748 208.813 147.306 210.525 147.161 212.365C147.084 213.31 146.818 214.204 146.425 215.01L170.458 234.33C171.105 233.683 171.86 233.17 172.704 232.802L164.305 205.806L161.902 198.074C161.483 198.112 161.077 198.138 160.665 198.1Z"
        fill="#3A71FD" />
    <path
        d="M180.366 74.0191C180.29 74.9769 180.017 75.8712 179.617 76.6895L182.522 78.2752L216.692 96.9044L200.929 59.3289L199.071 54.8888C198.215 55.1426 197.314 55.2631 196.375 55.1806C194.986 55.0728 193.737 54.559 192.677 53.8042L180.068 67.8918L178.977 69.1097C179.966 70.4924 180.512 72.1923 180.366 74.0191Z"
        fill="#3A71FD" />
    <path
        d="M200.598 54.2546L218.707 97.4246L238.04 81.7829L244.079 76.8925C243.229 75.5668 242.766 73.9811 242.905 72.2939C242.956 71.6596 243.108 71.076 243.305 70.4988L217.743 58.4536L203.288 51.6413C202.615 52.7323 201.702 53.6393 200.598 54.2546Z"
        fill="#3A71FD" />
    <path
        d="M337.893 127.249C337.113 129.405 335.388 131.086 333.244 131.797L341.236 174.593C341.388 174.599 341.534 174.573 341.686 174.586C344.033 174.776 346.012 176.058 347.236 177.884L371.282 161.228L391.047 147.527L337.893 127.249Z"
        fill="#3A71FD" />
    <path
        d="M307.294 324.368L290.999 378.613L287.637 389.777L312.102 386.637C309.844 373.095 306.545 348.605 307.294 324.368Z"
        fill="#3A71FD" />
    <path
        d="M285.838 220.122L264.38 154.828C264.361 154.828 264.342 154.841 264.316 154.841L265.997 229.693L281.518 227.201C281.499 226.89 281.474 226.579 281.499 226.262C281.721 223.484 283.472 221.213 285.838 220.122Z"
        fill="#3A71FD" />
    <path
        d="M155.285 186.276C156.357 184.824 157.93 183.803 159.732 183.422L157.582 117.107L157.061 100.989C156.827 100.989 156.598 101.021 156.364 101.002C155.279 100.913 154.277 100.583 153.383 100.089L111.862 142.276C112.724 143.608 113.187 145.2 113.054 146.9C112.946 148.213 112.477 149.405 111.792 150.426L123.285 159.896L155.285 186.276Z"
        fill="#3A71FD" />
    <path
        d="M336.123 225.057L328.512 228.768L315.737 234.997L323.241 246.585L354.867 295.438C355.488 294.931 356.085 294.411 356.668 293.872L342.98 228.546C342.6 228.571 342.225 228.596 341.838 228.565C339.39 228.374 337.329 226.998 336.123 225.057Z"
        fill="#3A71FD" />
    <path
        d="M242.184 229.712C242.222 229.243 242.317 228.786 242.431 228.349L171.264 197.37L166.925 195.486C166.024 196.539 164.857 197.338 163.519 197.763L174.27 232.3C174.917 232.173 175.583 232.104 176.268 232.161C179.573 232.427 182.174 234.844 182.89 237.907L234.604 231.856L242.197 230.962C242.171 230.562 242.146 230.137 242.184 229.712Z"
        fill="#3A71FD" />
    <path
        d="M161.862 183.257C163.099 183.358 164.222 183.783 165.199 184.399L203.187 131.207C201.518 129.704 200.523 127.49 200.719 125.086C200.795 124.16 201.055 123.31 201.43 122.517L174.631 105.981L162.516 98.5026C161.52 99.6253 160.201 100.418 158.716 100.786L159.68 130.572L161.399 183.263C161.552 183.27 161.704 183.244 161.862 183.257Z"
        fill="#3A71FD" />
    <path
        d="M255.897 146.868C255.897 146.849 255.91 146.836 255.91 146.817L232.695 136.985L214.624 129.329C213.241 131.778 210.526 133.351 207.545 133.11C206.448 133.021 205.433 132.685 204.526 132.171L199.585 139.091L166.5 185.42C167.223 186.143 167.8 186.999 168.175 187.957L227.062 163.34L256.754 150.927C256.107 149.722 255.783 148.333 255.897 146.868Z"
        fill="#3A71FD" />
    <path
        d="M297.576 48.0323C297.468 48.026 297.379 47.9943 297.271 47.9752L291.106 68.3233C292.298 68.742 293.351 69.446 294.163 70.3594L312.006 59.0119L324.888 50.8169C324.692 50.1001 324.59 49.3453 324.654 48.5588C324.673 48.2924 324.742 48.0513 324.787 47.7976L303.881 43.9728C302.942 46.5227 300.417 48.267 297.576 48.0323Z"
        fill="#3A71FD" />
    <path
        d="M283.177 39.5706L292.032 40.5664C292.533 38.2068 294.341 36.3928 296.624 35.8346L294.721 19.5713C291.106 14.96 285.993 11.8203 280.31 10.7293C280.209 10.7103 280.114 10.6722 280.025 10.6151C279.657 10.3868 279.283 10.1648 278.902 9.95544L277.17 32.2889C280.646 32.9549 283.177 35.9995 283.177 39.5706Z"
        fill="#3A71FD" />
    <path
        d="M290.687 234.058C289.932 234.242 289.139 234.349 288.321 234.28C285.124 234.02 282.587 231.761 281.775 228.844L266.653 231.273L313.261 295.533L309.462 285.188L290.687 234.058Z"
        fill="#3A71FD" />
    <path
        d="M275.51 32.162L276.341 21.5186L277.299 9.15623C273.239 7.26604 268.767 6.53025 264.327 7.05671C264.327 7.05671 263.94 7.12014 263.928 7.12648C263.737 7.1582 263.534 7.10746 263.376 6.99963C258.708 4.01211 253.062 2.70547 247.538 3.35244C246.244 3.50468 244.918 3.77742 243.618 4.16434L253.157 14.313L271.324 33.6399C272.51 32.7456 273.956 32.2191 275.51 32.162Z"
        fill="#3A71FD" />
    <path
        d="M298.584 35.657C300.912 35.8473 302.821 37.3252 303.722 39.3168L309.634 37.2871L317.677 34.5279C313.845 26.2441 305.707 20.8145 296.51 20.5608L298.274 35.6633C298.369 35.6633 298.477 35.6443 298.584 35.657Z"
        fill="#3A71FD" />
    <path
        d="M204.221 46.1674L220.935 44.4294L268.361 39.5073C268.361 39.3297 268.335 39.1521 268.348 38.9681C268.481 37.3507 269.134 35.9045 270.111 34.7564L241.638 4.47529C235.073 0.866169 227.588 -0.599048 220.116 0.269933C219.247 0.37142 218.334 0.517307 217.414 0.688566L201.988 37.8264L200.567 41.2453C202.426 42.2791 203.758 44.0742 204.221 46.1674Z"
        fill="#3A71FD" />
    <path
        d="M185.093 37.2429C185.048 37.7504 184.921 38.2261 184.75 38.6828L191.271 42.9959C192.768 41.2072 195.077 40.1353 197.576 40.3383C198.083 40.3827 198.578 40.4715 199.047 40.611L211.904 9.63849L215.437 1.13898C213.084 1.73521 210.807 2.56613 208.638 3.61272C208.409 3.72054 208.143 3.72054 207.915 3.61272C207.889 3.60003 207.864 3.58734 207.832 3.57465L183.076 32.5999C184.433 33.6782 185.245 35.3908 185.093 37.2429Z"
        fill="#3A71FD" />
    <path
        d="M338.342 125.321C338.336 125.429 338.298 125.524 338.285 125.625L339.243 125.993L392.156 146.176L392.238 145.669L392.847 141.876C392.72 141.679 392.644 141.463 392.682 141.305C393.126 139.098 393.221 136.865 392.961 134.677C392.511 130.807 390.982 127.148 388.553 124.09L339.072 124.458L338.33 124.464C338.336 124.744 338.368 125.029 338.342 125.321Z"
        fill="#3A71FD" />
    <path
        d="M163.748 17.8524C163.621 19.362 163.057 20.7258 162.182 21.8421L176.269 32.6949C177.316 31.8132 178.699 31.3248 180.164 31.4453C180.506 31.4707 180.824 31.5405 181.141 31.6229L202.231 1.42423C197.639 0.0858755 192.793 -0.313734 188.016 0.244443C187.725 0.276158 187.439 0.326904 187.154 0.371305L186.906 0.409354L163.266 14.6365C163.647 15.6324 163.843 16.717 163.748 17.8524Z"
        fill="#3A71FD" />
    <path
        d="M336.425 53.2334L354.395 73.7274L381.714 104.865C379.17 97.9004 374.178 92.0078 367.614 88.3542C367.36 88.2147 367.201 87.942 367.189 87.6502C367.17 86.7241 367.106 85.779 366.998 84.8466C365.742 74.0763 359.114 64.8917 349.263 60.2995C349.029 60.1853 348.864 59.9823 348.807 59.7349C348.509 58.4346 348.09 57.1343 347.564 55.8658L347.418 55.8023L337.339 51.6541C337.091 52.2186 336.8 52.7577 336.425 53.2334Z"
        fill="#3A71FD" />
    <path
        d="M331.62 55.6818L331.684 102.956L331.703 117.329C334.836 117.659 337.316 119.904 338.096 122.803L387.108 122.435C386.081 121.375 384.964 120.43 383.772 119.631C383.518 119.46 383.372 119.162 383.404 118.851C383.658 116.529 383.651 114.176 383.385 111.867C383.258 110.834 383.074 109.774 382.82 108.626L379.217 104.516L335.223 54.3624C334.195 55.1363 332.958 55.6056 331.62 55.6818Z"
        fill="#3A71FD" />
    <path
        d="M1.87054 180.98L1.12842 180.047C2.25112 185.896 4.18571 191.503 6.91317 196.761L9.47572 198.442L22.7959 207.17L1.87054 180.98Z"
        fill="#3A71FD" />
    <path
        d="M149.544 92.9716C149.665 91.5317 150.204 90.2188 151.016 89.1405L102.835 41.6827C101.947 42.4502 100.875 42.9766 99.708 43.2621L103.501 97.012L106.457 138.913C108.157 139.097 109.66 139.865 110.808 140.994L152.031 99.1115C150.35 97.6083 149.341 95.3882 149.544 92.9716Z"
        fill="#3A71FD" />
    <path
        d="M25.5979 152.995L0.974654 157.486C-0.0973011 163.455 -0.287591 169.525 0.416474 175.538C0.448189 175.83 0.49259 176.121 0.53699 176.407L0.58139 176.718L26.0736 208.623L28.7757 183.187L31.4334 158.203C28.6108 157.702 26.3781 155.653 25.5979 152.995Z"
        fill="#3A71FD" />
    <path
        d="M266.033 297.639C266.134 297.715 266.223 297.803 266.286 297.924C270.663 305.808 274.437 314.682 277.501 324.304L307.794 315.101L307.807 314.929L265.443 232.966L252.662 282.257C255.77 288.429 260.381 293.738 266.033 297.639Z"
        fill="#3A71FD" />
    <path
        d="M33.3233 143.474C34.2367 143.55 35.0867 143.81 35.8732 144.178L93.9173 42.2664C93.0293 41.6892 92.2745 40.9407 91.71 40.0464L73.233 48.3873L52.0667 57.9461C45.1275 65.3864 40.0849 74.4568 37.497 84.1868C37.4526 84.3771 37.3384 84.542 37.1798 84.6498C21.608 95.7183 11.9096 113.669 11.2246 132.672C11.2246 132.831 11.1738 132.989 11.0787 133.11C9.97502 134.702 8.90306 136.414 7.90088 138.21L25.6421 146.436L26.5174 146.842C27.9636 144.641 30.5134 143.246 33.3233 143.474Z"
        fill="#3A71FD" />
    <path
        d="M27.0756 211.794L26.6696 212.612L24.2847 217.42C32.9555 224.042 43.2056 228.222 53.9886 229.573L55.1938 229.453L64.2578 228.571L51.4197 222.78L27.0756 211.794Z"
        fill="#3A71FD" />
    <path
        d="M157.563 86.1467C159.167 86.2799 160.601 86.9205 161.743 87.8847L168.358 79.2773C166.455 77.7867 165.307 75.4018 165.517 72.8075C165.555 72.2874 165.65 71.78 165.796 71.2979L104.219 40.0273C104.123 40.1668 104.041 40.3127 103.946 40.4459L152.133 87.91C153.586 86.6732 155.514 85.9818 157.563 86.1467Z"
        fill="#3A71FD" />
    <path
        d="M124.706 255.966C131.55 262.258 139.732 267.091 148.53 270.041L139.916 255.541L136.269 249.407L124.706 255.966Z"
        fill="#3A71FD" />
    <path
        d="M8.65479 199.875C12.3844 206.142 17.2685 211.787 22.9517 216.38L23.7446 214.781L25.6221 211.001L8.65479 199.875Z"
        fill="#3A71FD" />
    <path
        d="M172.335 80.8441C171.421 80.768 170.571 80.508 169.785 80.1401L162.89 89.1153C163.949 90.5234 164.539 92.2931 164.387 94.177L214.642 97.6719L209.314 94.7669L178.728 78.0913C177.232 79.9434 174.885 81.0471 172.335 80.8441Z"
        fill="#3A71FD" />
    <path
        d="M168.276 240.381C168.226 239.925 168.207 239.455 168.251 238.98C168.352 237.736 168.784 236.607 169.412 235.618L145.531 216.43C144.306 217.953 142.492 218.961 140.469 219.164L137.507 247.225L148.892 244.695L168.276 240.381Z"
        fill="#3A71FD" />
    <path
        d="M98.5653 28.6228C100.037 28.7433 101.369 29.3015 102.466 30.1324L110.617 20.7195C105.162 22.2354 99.9735 24.5062 95.1655 27.4937L95.8442 28.9209C96.7005 28.6672 97.6202 28.5466 98.5653 28.6228Z"
        fill="#3A71FD" />
    <path
        d="M126.596 26.4154L149.19 19.3304C148.942 18.4804 148.815 17.5861 148.898 16.6537C149.202 12.8733 152.304 10.0126 155.996 9.84772L156.345 6.56842C155.222 6.63819 154.074 6.73334 152.926 6.87288C142.415 8.09707 132.4 12.1058 123.958 18.4614C123.831 18.5629 123.672 18.62 123.507 18.6263C122.245 18.6961 120.995 18.7849 119.727 18.9371C117.684 19.1782 115.566 19.546 113.422 20.0281L103.673 31.2805C104.161 31.864 104.535 32.53 104.827 33.2404L126.596 26.4154Z"
        fill="#3A71FD" />
    <path
        d="M116.282 246.572C118.439 249.502 120.843 252.255 123.437 254.773L133.973 248.798L127.623 247.999L116.282 246.572Z"
        fill="#3A71FD" />
    <path
        d="M41.9248 173.045L35.2711 157.885C34.5861 158.139 33.8503 158.279 33.0955 158.31L32.1187 167.457L27.5771 210.196L40.7577 216.145L65.7996 227.442L41.9248 173.045Z"
        fill="#3A71FD" />
    <path
        d="M264.244 225.4L262.741 158.228L252.319 223.414C254.996 224.467 256.867 226.985 257.019 229.941L260.185 229.897L264.339 229.84L264.244 225.4Z"
        fill="#3A71FD" />
    <path
        d="M252.396 80.0387L254.349 91.456L262.665 140.068C263.077 140.03 263.502 140.005 263.927 140.043C264.447 140.087 264.942 140.182 265.418 140.322L283.07 87.7263L285.043 81.8401C282.797 80.6032 281.313 78.25 281.224 75.586L257.635 74.1715C257.14 77.0195 255.072 79.2649 252.396 80.0387Z"
        fill="#3A71FD" />
    <path
        d="M204.005 50.1506L244.022 69.0144C245.45 66.712 248.057 65.2467 250.936 65.4814C252.122 65.5766 253.194 65.9635 254.146 66.5407L270.644 44.924C269.591 43.9155 268.855 42.6152 268.531 41.1563L204.392 47.8164C204.392 48.0003 204.417 48.1779 204.398 48.3555C204.347 48.9835 204.195 49.5797 204.005 50.1506Z"
        fill="#3A71FD" />
    <path
        d="M40.0287 149.589L84.3024 147.216L98.2124 146.468C98.2061 146.208 98.1743 145.954 98.1934 145.694C98.4851 142.091 101.314 139.294 104.784 138.901L98.0538 43.4588C97.8255 43.4588 97.5971 43.4905 97.3624 43.4715C96.6711 43.4144 96.0241 43.2368 95.4025 43.0085L37.2949 145.028C38.7221 146.151 39.6989 147.768 40.0287 149.589Z"
        fill="#3A71FD" />
    <path
        d="M218.662 100.33L211.545 119.061C214.14 120.399 215.821 123.196 215.573 126.285C215.529 126.812 215.434 127.325 215.288 127.807L256.257 145.162C256.472 144.515 256.777 143.918 257.151 143.367L256.339 142.453L218.662 100.33Z"
        fill="#3A71FD" />
    <path
        d="M258.219 142.085C259.018 141.324 259.963 140.728 261.029 140.379L250.753 80.3048C250.417 80.3238 250.081 80.3556 249.732 80.3238C247.918 80.178 246.332 79.3661 245.127 78.1736L219.571 98.8579L257.445 141.216L258.219 142.085Z"
        fill="#3A71FD" />
    <path
        d="M104.957 38.5429L166.464 69.7755C167.282 68.3229 168.563 67.2066 170.092 66.566L165.176 50.6769L157.114 24.6456C156.658 24.6963 156.188 24.7153 155.719 24.6709C153.15 24.4616 150.987 22.9583 149.814 20.8588L105.286 34.8196C105.388 35.4158 105.439 36.0248 105.388 36.6464C105.337 37.3187 105.172 37.9467 104.957 38.5429Z"
        fill="#3A71FD" />
    <path
        d="M325.517 52.3896L295.147 71.7102C295.838 72.9534 296.187 74.4123 296.067 75.9409C295.927 77.7296 295.128 79.3027 293.961 80.5015L315.419 104.871L327.217 118.274C328.073 117.779 329.031 117.449 330.046 117.329L329.963 55.5611C328.048 55.1742 326.443 54.0008 325.517 52.3896Z"
        fill="#3A71FD" />
    <path
        d="M307.643 317.448C307.643 317.277 307.656 317.08 307.669 316.865L293.093 321.292L277.99 325.891C283.464 343.733 286.496 363.98 287.004 386.136L307.643 317.448Z"
        fill="#3A71FD" />
    <path
        d="M202.288 121.096C203.779 119.2 206.163 118.052 208.751 118.261C209.183 118.293 209.595 118.388 209.995 118.489L217.207 99.5112L164.059 95.8133C163.913 96.2827 163.717 96.7267 163.488 97.1453L202.288 121.096Z"
        fill="#3A71FD" />
    <path
        d="M286.577 82.4868L279.238 104.37L266.945 140.981C268.988 142.129 270.428 144.184 270.719 146.569L319.268 135.641L307.128 112.73L291.042 82.3726C290.103 82.6961 289.082 82.842 288.029 82.7532C287.534 82.7151 287.046 82.62 286.577 82.4868Z"
        fill="#3A71FD" />
    <path
        d="M190.901 180.263L168.612 189.581C168.694 190.133 168.739 190.703 168.688 191.287C168.605 192.295 168.32 193.253 167.882 194.097L242.602 226.617L243.046 226.807C244.403 224.283 247.169 222.646 250.214 222.894C250.385 222.906 250.543 222.964 250.708 222.989L261.624 154.695C260.064 154.32 258.7 153.502 257.705 152.341L190.901 180.263Z"
        fill="#3A71FD" />
    <path
        d="M333.654 181.417C333.692 180.961 333.781 180.517 333.895 180.092L268.924 152.348C268.125 153.255 267.123 153.965 265.981 154.397L280.855 199.666L287.407 219.615C288.092 219.475 288.796 219.386 289.526 219.45C291.296 219.589 292.85 220.376 294.042 221.511L319.16 200.516L335.455 186.898C334.193 185.426 333.489 183.492 333.654 181.417Z"
        fill="#3A71FD" />
</svg>