<svg width="17" height="19" viewBox="0 0 17 19" fill="none" xmlns="http://www.w3.org/2000/svg">
    <path
        d="M15.1667 6.5H12.5V4.5C12.5 3.43913 12.0786 2.42172 11.3284 1.67157C10.5783 0.921427 9.56087 0.5 8.5 0.5C7.43913 0.5 6.42172 0.921427 5.67157 1.67157C4.92143 2.42172 4.5 3.43913 4.5 4.5V6.5H1.83333C1.47971 6.5 1.14057 6.64048 0.890524 6.89052C0.640476 7.14057 0.5 7.47971 0.5 7.83333V17.1667C0.5 17.5203 0.640476 17.8594 0.890524 18.1095C1.14057 18.3595 1.47971 18.5 1.83333 18.5H15.1667C15.5203 18.5 15.8594 18.3595 16.1095 18.1095C16.3595 17.8594 16.5 17.5203 16.5 17.1667V7.83333C16.5 7.47971 16.3595 7.14057 16.1095 6.89052C15.8594 6.64048 15.5203 6.5 15.1667 6.5ZM5.83333 4.5C5.83333 3.79276 6.11428 3.11448 6.61438 2.61438C7.11448 2.11428 7.79276 1.83333 8.5 1.83333C9.20724 1.83333 9.88552 2.11428 10.3856 2.61438C10.8857 3.11448 11.1667 3.79276 11.1667 4.5V6.5H5.83333V4.5ZM15.1667 17.1667H1.83333V7.83333H15.1667V17.1667ZM9.5 12.5C9.5 12.6978 9.44135 12.8911 9.33147 13.0556C9.22159 13.22 9.06541 13.3482 8.88268 13.4239C8.69996 13.4996 8.49889 13.5194 8.30491 13.4808C8.11093 13.4422 7.93275 13.347 7.79289 13.2071C7.65304 13.0673 7.5578 12.8891 7.51921 12.6951C7.48063 12.5011 7.50043 12.3 7.57612 12.1173C7.65181 11.9346 7.77998 11.7784 7.94443 11.6685C8.10888 11.5587 8.30222 11.5 8.5 11.5C8.76522 11.5 9.01957 11.6054 9.20711 11.7929C9.39464 11.9804 9.5 12.2348 9.5 12.5Z"
        fill="#8A95B0" />
</svg>
