<svg width="100" height="91" viewBox="0 0 100 91" fill="none" xmlns="http://www.w3.org/2000/svg">
    <path
        d="M80.2234 23.0966L78.9692 24.6108L81.7658 30.6828L83.5998 34.6639C83.6313 34.6573 83.6611 34.6506 83.6942 34.644L81.6134 23.5074C81.504 23.5174 81.3897 23.524 81.2754 23.5141C80.8761 23.4826 80.515 23.3302 80.2234 23.0966Z"
        fill="#3A71FD" fill-opacity="0.08" />
    <path
        d="M38.1176 55.0965L39.5904 53.0239C39.3452 52.8036 39.153 52.5269 39.0453 52.2104L32.5095 53.6617L31.4873 53.8904L34.4131 54.843L37.5692 55.8685L38.1176 55.0965Z"
        fill="#3A71FD" fill-opacity="0.08" />
    <path
        d="M9.48096 3.26547L18.7388 -0.916138L15.4469 -0.202085C13.2434 0.498715 11.1973 1.68991 9.48096 3.26547Z"
        fill="#3A71FD" fill-opacity="0.08" />
    <path
        d="M79.9709 1.07184C80.2741 0.448908 80.9318 0.0413534 81.6624 0.100996C81.7453 0.107623 81.8248 0.127501 81.9043 0.145725L81.9607 0.0380398C81.8463 -6.51553e-05 81.7304 -0.0365152 81.6144 -0.0679932L74.9146 0.147384L78.7433 0.848181L79.9709 1.07184Z"
        fill="#3A71FD" fill-opacity="0.08" />
    <path
        d="M1.60836 28.2572C1.62327 28.075 1.67132 27.9043 1.73096 27.7403L-3.14316 25.4822C-3.84065 26.8059 -4.34927 28.2141 -4.65576 29.6787L0.0576553 28.8188L1.61499 28.5339C1.60836 28.4444 1.60008 28.3516 1.60836 28.2572Z"
        fill="#3A71FD" fill-opacity="0.08" />
    <path
        d="M22.3735 46.6818C22.4531 47.0695 22.5458 47.4539 22.6502 47.8266L27.2311 45.8634L29.2159 45.0118L22.3735 46.6818Z"
        fill="#3A71FD" fill-opacity="0.08" />
    <path
        d="M41.8302 0.0131875C41.8053 0.0115308 41.7838 0.0032472 41.7606 0.00159043L40.7964 6.34027C41.0432 6.42476 41.2669 6.5573 41.4558 6.72629L44.2987 3.55032L45.0012 2.76669C44.6582 2.38398 44.4644 1.86708 44.5091 1.31538C44.5307 1.05362 44.6036 0.808421 44.7162 0.588076L43.5681 -0.172366L43.0462 -0.516968C42.7646 -0.160769 42.3156 0.0529492 41.8302 0.0131875Z"
        fill="#3A71FD" fill-opacity="0.08" />
    <path
        d="M37.8496 -0.170805L39.841 6.26562C40 6.23745 40.1607 6.22254 40.3297 6.2358C40.3446 6.2358 40.3595 6.24243 40.3744 6.24408L41.342 -0.121101C40.83 -0.364642 40.4937 -0.903082 40.5434 -1.49951C40.5633 -1.73311 40.6428 -1.94517 40.7605 -2.13072L37.0543 -4.98694C36.8787 -4.84446 36.6783 -4.73014 36.4629 -4.65559L37.8496 -0.170805Z"
        fill="#3A71FD" fill-opacity="0.08" />
    <path
        d="M84.1655 44.8428L84.1356 41.9385L84.1008 38.4776C84.0445 38.4776 83.9898 38.4859 83.9302 38.4809C83.8275 38.4727 83.7297 38.4495 83.632 38.4263L79.7055 45.9031L77.6528 49.8097L82.6032 47.3958C82.5187 47.149 82.4806 46.8823 82.5021 46.6072C82.5783 45.6877 83.2874 44.9704 84.1655 44.8428Z"
        fill="#3A71FD" fill-opacity="0.08" />
    <path
        d="M76.0552 19.0988L78.754 24.1916L79.917 22.7867C79.6188 22.4123 79.4531 21.9318 79.4945 21.4199C79.5343 20.9129 79.7712 20.4722 80.1175 20.1508L71.4461 10.3015C71.4329 10.3098 71.4213 10.3197 71.4097 10.328L76.0552 19.0988Z"
        fill="#3A71FD" fill-opacity="0.08" />
    <path
        d="M60.3762 51.0903L59.2065 60.8568C59.5545 60.9827 59.904 61.0887 60.247 61.1732C60.3182 61.1898 60.3762 61.2428 60.4011 61.314C60.4872 61.5708 60.5883 61.8343 60.7075 62.1076L61.9203 57.4273L63.9846 49.4684L62.1025 49.4949C61.9518 50.3564 61.2394 51.0091 60.3762 51.0903Z"
        fill="#3A71FD" fill-opacity="0.08" />
    <path
        d="M97.6813 45.537C97.567 45.146 97.4311 44.7633 97.277 44.3955L97.0352 46.5609L97.3764 46.0224L97.6813 45.537Z"
        fill="#3A71FD" fill-opacity="0.08" />
    <path
        d="M62.3205 7.94058L68.0628 8.28518L68.4886 8.31003C68.6012 7.72686 68.9624 7.24309 69.4594 6.96973L68.9177 5.41571L67.4581 1.22251C67.2692 1.26559 67.0754 1.29044 66.8716 1.27387C66.5618 1.24736 66.2818 1.1463 66.0333 0.997192L62.97 5.00981L61.7241 6.6417C62.0737 6.97801 62.294 7.43527 62.3205 7.94058Z"
        fill="#3A71FD" fill-opacity="0.08" />
    <path
        d="M65.7788 51.7034L75.4691 70.451C75.5652 69.4553 75.6911 68.5027 75.8451 67.608C75.8584 67.5401 75.8998 67.4821 75.9595 67.4523C76.0208 67.4192 76.0937 67.4175 76.1533 67.4523C76.4714 67.6097 76.8061 67.7555 77.1755 67.8913L77.3114 67.6064L69.7715 57.2104L65.7788 51.7034Z"
        fill="#3A71FD" fill-opacity="0.08" />
    <path
        d="M71.3335 49.9886L71.8487 51.3886L77.3176 66.2826L76.9432 50.4558L72.2447 49.0244C72.0608 49.4436 71.7377 49.7832 71.3335 49.9886Z"
        fill="#3A71FD" fill-opacity="0.08" />
    <path
        d="M58.3465 49.755L50.4953 50.6745L42.8229 51.5724C42.8229 51.6271 42.8295 51.6801 42.8262 51.7381C42.7815 52.2931 42.5032 52.7719 42.1006 53.095L45.8962 59.0891C48.3896 58.0503 50.6311 56.4167 52.3873 54.3574C52.432 54.3044 52.4999 54.2762 52.5679 54.2829C52.5745 54.2829 52.5828 54.2829 52.5894 54.2845C52.6639 54.2994 52.7269 54.3508 52.7534 54.4237C53.7872 57.2766 55.9774 59.5496 58.7889 60.6944L59.4234 55.4128L59.942 51.0804C59.1832 50.976 58.5735 50.4492 58.3465 49.755Z"
        fill="#3A71FD" fill-opacity="0.08" />
    <path
        d="M82.944 38.1082L80.9211 39.798L72.0791 47.1887C72.3127 47.54 72.4403 47.9624 72.4038 48.4131C72.3972 48.481 72.379 48.5439 72.3674 48.6102L73.5718 48.978L77.046 50.0383L78.3996 47.4588L83.219 38.2821C83.1229 38.2308 83.0318 38.1728 82.944 38.1082Z"
        fill="#3A71FD" fill-opacity="0.08" />
    <path
        d="M32.7767 42.8564L35.6777 40.1012C35.3331 39.7169 35.1376 39.2 35.1823 38.6466C35.2006 38.4296 35.2602 38.2275 35.343 38.0386L23.9198 28.6217C23.8602 28.678 23.7972 28.7294 23.731 28.7774L31.0024 42.4405C31.2095 42.3859 31.4282 42.3561 31.6551 42.3743C32.0892 42.4074 32.4736 42.5897 32.7767 42.8564Z"
        fill="#3A71FD" fill-opacity="0.08" />
    <path
        d="M31.1459 47.2734L31.2553 46.2362C30.6158 46.1551 30.0806 45.774 29.7907 45.2389L22.7744 48.2475C23.288 49.9175 24.0468 51.4881 25.0292 52.9228L30.1452 53.564L30.4766 53.6054L31.1459 47.2734Z"
        fill="#3A71FD" fill-opacity="0.08" />
    <path
        d="M97.676 51.5923L96.6869 48.1628L93.2393 57.535C95.3814 56.1467 96.9437 54.0608 97.676 51.5923Z"
        fill="#3A71FD" fill-opacity="0.08" />
    <path
        d="M77.7727 67.3843L83.187 67.835L84.5405 67.9476C85.5428 67.5881 86.4855 67.0828 87.3437 66.4367L79.6631 54.5728L77.3867 51.0555L77.7727 67.3843Z"
        fill="#3A71FD" fill-opacity="0.08" />
    <path
        d="M29.5572 44.1537C29.6136 43.4661 30.0244 42.8929 30.5944 42.5947L29.2623 40.0913L23.3544 28.9912C23.0711 29.1138 22.7596 29.1784 22.4316 29.1519C22.3339 29.1453 22.2444 29.1221 22.1533 29.1022L13.0015 48.5225L18.8945 47.0877C19.9217 46.5211 20.8892 45.8369 21.7689 45.0582C21.8286 45.0052 21.9147 44.9903 21.9893 45.0201C22.0638 45.0483 22.1185 45.1179 22.1268 45.1958C22.1649 45.5221 22.2195 45.8717 22.2908 46.2594L24.2938 45.7723L29.5655 44.4867C29.5539 44.3757 29.5473 44.2663 29.5572 44.1537Z"
        fill="#3A71FD" fill-opacity="0.08" />
    <path
        d="M97.5762 27.7585L95.8731 28.9365L87.9307 34.4402L95.2833 30.3828L98.4576 28.6283L97.5762 27.7585Z"
        fill="#3A71FD" fill-opacity="0.08" />
    <path
        d="M83.1977 34.8179L78.5936 24.8278L65.7108 27.727C65.6826 27.9805 65.613 28.2174 65.4971 28.4312L73.5389 31.8639L82.3676 35.633C82.5532 35.2834 82.8464 35.0001 83.1977 34.8179Z"
        fill="#3A71FD" fill-opacity="0.08" />
    <path
        d="M40.727 53.5191C40.4421 53.4943 40.177 53.4081 39.9418 53.2772L39.0819 54.4883L37.9321 56.1053L41.7459 60.2339C43.0299 60.0466 44.2874 59.7153 45.4852 59.2531L41.731 53.322C41.4295 53.4711 41.0866 53.5489 40.727 53.5191Z"
        fill="#3A71FD" fill-opacity="0.08" />
    <path
        d="M36.6215 58.3038L35.606 60.0301C37.44 60.4261 39.3452 60.5222 41.2239 60.3051L37.6934 56.483L36.6215 58.3038Z"
        fill="#3A71FD" fill-opacity="0.08" />
    <path
        d="M32.863 57.1159L34.4153 59.7253C34.6622 59.7981 34.9124 59.8661 35.1642 59.9274L37.3328 56.2428L35.2288 55.5586L31.1499 54.2299L32.863 57.1159Z"
        fill="#3A71FD" fill-opacity="0.08" />
    <path
        d="M20.7099 27.6874L5.48615 28.5041C5.4845 28.5273 5.48947 28.5489 5.48781 28.5721C5.43645 29.1983 5.08854 29.7252 4.59814 30.0433L11.4985 45.7624L12.6201 48.3171L21.7421 28.9581C21.2285 28.7096 20.8524 28.244 20.7099 27.6874Z"
        fill="#3A71FD" fill-opacity="0.08" />
    <path
        d="M67.8657 1.08169L69.6335 6.16124L69.8604 6.81068C70.0791 6.74773 70.3094 6.71625 70.548 6.73613C70.5712 6.73779 70.5894 6.74607 70.6109 6.74773L72.2279 1.41635C71.6696 1.17943 71.2836 0.647621 71.2438 0.0280013L68.9177 -0.233765C68.7852 0.354377 68.3876 0.829861 67.8657 1.08169Z"
        fill="#3A71FD" fill-opacity="0.08" />
    <path
        d="M36.9645 40.7424C36.605 40.7143 36.2803 40.5817 36.0053 40.3862L33.0679 43.1778C33.3296 43.5407 33.4754 43.988 33.4373 44.4684C33.4174 44.7153 33.3479 44.9489 33.2451 45.1593L39.5225 50.2057C39.6915 50.0367 39.8887 49.9025 40.109 49.8064L37.9155 42.7554L37.2876 40.7358C37.1782 40.7457 37.0722 40.7524 36.9645 40.7424Z"
        fill="#3A71FD" fill-opacity="0.08" />
    <path
        d="M42.1104 8.33337C42.0905 8.58353 42.0193 8.81713 41.9149 9.03085L42.6737 9.44503L51.5985 14.3109L47.4815 4.49636L46.9961 3.33665C46.7724 3.40292 46.5372 3.43439 46.292 3.41286C45.9292 3.38469 45.6028 3.2505 45.3261 3.05334L42.0325 6.73296L41.7476 7.05105C42.006 7.41222 42.1485 7.85623 42.1104 8.33337Z"
        fill="#3A71FD" fill-opacity="0.08" />
    <path
        d="M47.395 3.17098L52.125 14.4467L57.1747 10.3612L58.7519 9.08387C58.5299 8.73761 58.409 8.32343 58.4455 7.88274C58.4587 7.71706 58.4985 7.56464 58.5498 7.41388L51.8732 4.26774L48.0975 2.4884C47.9219 2.77336 47.6833 3.01027 47.395 3.17098Z"
        fill="#3A71FD" fill-opacity="0.08" />
    <path
        d="M83.2559 22.2366C83.0521 22.7999 82.6015 23.2389 82.0415 23.4245L84.129 34.6025C84.1688 34.6041 84.2069 34.5975 84.2466 34.6008C84.8596 34.6505 85.3765 34.9852 85.6963 35.4623L91.977 31.1117L97.1393 27.5332L83.2559 22.2366Z"
        fill="#3A71FD" fill-opacity="0.08" />
    <path
        d="M75.2636 73.7231L71.0075 87.8916L70.1294 90.8074L76.5194 89.9873C75.9296 86.4502 75.0681 80.0535 75.2636 73.7231Z"
        fill="#3A71FD" fill-opacity="0.08" />
    <path
        d="M69.6594 46.4946L64.0547 29.4402C64.0497 29.4402 64.0447 29.4435 64.0381 29.4435L64.4771 48.9947L68.5312 48.3436C68.5262 48.2624 68.5196 48.1812 68.5262 48.0984C68.5842 47.3727 69.0414 46.7796 69.6594 46.4946Z"
        fill="#3A71FD" fill-opacity="0.08" />
    <path
        d="M35.5595 37.6543C35.8395 37.2749 36.2503 37.0082 36.7208 36.9088L36.1592 19.5876L36.0234 15.3778C35.9621 15.3778 35.9024 15.3861 35.8411 15.3811C35.5578 15.358 35.296 15.2718 35.0624 15.1426L24.2174 26.1615C24.4428 26.5094 24.5637 26.9253 24.5289 27.3693C24.5007 27.7122 24.3781 28.0237 24.1992 28.2904L27.2012 30.7639L35.5595 37.6543Z"
        fill="#3A71FD" fill-opacity="0.08" />
    <path
        d="M86.3496 47.0909C86.2253 47.8265 85.6952 48.4097 85.0093 48.6218L86.4954 55.7159L88.5265 65.4078C90.3622 63.5556 91.4557 61.1285 91.618 58.5307C91.623 58.4512 91.671 58.3799 91.7439 58.3485L91.8118 58.3203C91.9096 58.2756 92.0073 58.2292 92.1051 58.1828C92.2873 58.0933 92.4696 57.9989 92.6452 57.8962L93.3625 55.9462L96.4076 47.6725L86.3496 47.0909Z"
        fill="#3A71FD" fill-opacity="0.08" />
    <path
        d="M97.7529 40.108C99.2937 38.9433 100.127 37.0215 99.9001 35.0881C99.8305 34.485 99.6582 33.8952 99.3848 33.3369C99.355 33.2756 99.355 33.2044 99.3881 33.1431C99.8901 32.1689 100.089 31.0788 99.963 29.987C99.9067 29.5214 99.7907 29.0575 99.6101 28.6102L99.1529 28.7825L99.0154 28.8355L97.7529 40.108Z"
        fill="#3A71FD" fill-opacity="0.08" />
    <path
        d="M82.7935 47.7836L80.8054 48.7528L77.4688 50.3797L79.4287 53.4065L87.6892 66.1667C87.8515 66.0342 88.0072 65.8983 88.1597 65.7575L84.5844 48.6948C84.485 48.7014 84.3873 48.708 84.2862 48.6997C83.6467 48.65 83.1083 48.2905 82.7935 47.7836Z"
        fill="#3A71FD" fill-opacity="0.08" />
    <path
        d="M58.2573 48.9994C58.2672 48.8768 58.2921 48.7576 58.3219 48.6432L39.7333 40.5517L38.6001 40.0597C38.3649 40.3347 38.06 40.5435 37.7104 40.6545L40.5186 49.6754C40.6876 49.6423 40.8616 49.624 41.0405 49.6389C41.9036 49.7085 42.5829 50.3397 42.7701 51.1399L56.2775 49.5594L58.2606 49.3258C58.254 49.2214 58.2474 49.1104 58.2573 48.9994Z"
        fill="#3A71FD" fill-opacity="0.08" />
    <path
        d="M37.2773 36.8656C37.6004 36.8921 37.8936 37.0031 38.1488 37.1638L48.0709 23.2704C47.6352 22.8778 47.3751 22.2996 47.4265 21.6717C47.4464 21.4298 47.5143 21.2078 47.612 21.0007L40.6123 16.6816L37.448 14.7283C37.1878 15.0215 36.8432 15.2286 36.4556 15.3247L36.7074 23.1047L37.1564 36.8672C37.1961 36.8689 37.2359 36.8623 37.2773 36.8656Z"
        fill="#3A71FD" fill-opacity="0.08" />
    <path
        d="M61.8388 27.3609C61.8388 27.3559 61.8421 27.3526 61.8421 27.3477L55.7785 24.7797L51.0584 22.78C50.6973 23.4195 49.9882 23.8304 49.2095 23.7674C48.9229 23.7443 48.6578 23.6564 48.4209 23.5223L47.1303 25.3297L38.4888 37.4306C38.6776 37.6194 38.8284 37.8431 38.9261 38.0932L54.3073 31.6635L62.0625 28.4212C61.8935 28.1064 61.809 27.7436 61.8388 27.3609Z"
        fill="#3A71FD" fill-opacity="0.08" />
    <path
        d="M72.725 1.54567C72.6969 1.54401 72.6737 1.53572 72.6455 1.53075L71.0352 6.84556C71.3466 6.95491 71.6216 7.13881 71.8337 7.37738L76.4941 4.41347L79.8589 2.27297C79.8076 2.08576 79.7811 1.88861 79.7976 1.68317C79.8026 1.61359 79.8208 1.55063 79.8324 1.48436L74.3718 0.485352C74.1266 1.15136 73.4672 1.60696 72.725 1.54567Z"
        fill="#3A71FD" fill-opacity="0.08" />
    <path
        d="M97.886 50.759C98.209 49.2233 98.1941 47.6378 97.8313 46.1069L96.9482 47.5036L97.886 50.759Z"
        fill="#3A71FD" fill-opacity="0.08" />
    <path
        d="M85.9557 36.0257C86.0154 36.2394 86.0452 36.4664 86.027 36.7C85.9988 37.0429 85.8762 37.3544 85.6973 37.6212L93.0499 44.0046L96.5439 47.0397L96.6897 45.7392L96.925 43.6467C96.5158 42.8531 96.0171 42.1192 95.4389 41.4631C95.3892 41.4068 95.3726 41.3256 95.3975 41.2511C95.4223 41.1782 95.4836 41.1251 95.5598 41.1086C96.1678 40.9843 96.7494 40.754 97.2861 40.4293L97.914 34.8146L98.5585 29.0724L85.9557 36.0257Z"
        fill="#3A71FD" fill-opacity="0.08" />
    <path
        d="M70.9258 50.1344C70.7287 50.1825 70.5216 50.2106 70.3079 50.1924C69.4729 50.1245 68.8102 49.5347 68.5981 48.7726L64.6484 49.4071L76.8221 66.1915L75.8298 63.4894L70.9258 50.1344Z"
        fill="#3A71FD" fill-opacity="0.08" />
    <path
        d="M48.3415 1.05856L52.707 0.604613L65.0944 -0.681012C65.0944 -0.727402 65.0878 -0.773791 65.0911 -0.821836C65.1259 -1.2443 65.2965 -1.62204 65.5517 -1.92191L58.1146 -9.83117C56.3999 -10.7739 54.4449 -11.1566 52.4933 -10.9296C52.2663 -10.9031 52.0277 -10.865 51.7875 -10.8202L47.7583 -1.12005L47.3872 -0.227066C47.8726 0.0429821 48.2205 0.511837 48.3415 1.05856Z"
        fill="#3A71FD" fill-opacity="0.08" />
    <path
        d="M43.3452 -1.27249C43.3336 -1.13995 43.3005 -1.0157 43.2557 -0.896413L44.9589 0.230169C45.3499 -0.237031 45.9529 -0.51702 46.6057 -0.464005C46.7382 -0.452408 46.8674 -0.429212 46.99 -0.392763L50.3482 -8.48261L51.271 -10.7026C50.6564 -10.5469 50.0616 -10.3299 49.495 -10.0565C49.4354 -10.0283 49.3658 -10.0283 49.3061 -10.0565C49.2995 -10.0598 49.2929 -10.0631 49.2846 -10.0665L42.8184 -2.48522C43.1729 -2.20358 43.385 -1.75626 43.3452 -1.27249Z"
        fill="#3A71FD" fill-opacity="0.08" />
    <path
        d="M99.3902 28.1114C99.2759 27.8911 99.1467 27.679 98.9976 27.4719L99.0009 27.5896L99.0224 28.3152L99.3902 28.1114Z"
        fill="#3A71FD" fill-opacity="0.08" />
    <path
        d="M83.3728 21.733C83.3712 21.7612 83.3612 21.786 83.3579 21.8126L83.6081 21.9086L97.4286 27.1804L97.4501 27.0478L97.6092 26.0571C97.576 26.0058 97.5561 25.9494 97.5661 25.908C97.682 25.3315 97.7069 24.7483 97.639 24.1767C97.5213 23.1661 97.1221 22.2102 96.4875 21.4116L83.5633 21.5077L83.3695 21.5094C83.3712 21.5823 83.3794 21.6568 83.3728 21.733Z"
        fill="#3A71FD" fill-opacity="0.08" />
    <path
        d="M98.5673 27.4868L98.5524 26.9186C98.3768 26.7281 98.1879 26.5508 97.9924 26.3884L97.8301 27.399L98.5822 28.1446L98.5673 27.4868Z"
        fill="#3A71FD" fill-opacity="0.08" />
    <path
        d="M82.8726 2.90423L87.5661 8.25714L94.7017 16.3901C94.0373 14.571 92.7335 13.0319 91.0187 12.0776C90.9525 12.0411 90.9111 11.9699 90.9077 11.8937C90.9028 11.6518 90.8862 11.4049 90.858 11.1614C90.53 8.34826 88.7987 5.94931 86.2258 4.74983C86.1645 4.72001 86.1214 4.667 86.1065 4.60238C86.0286 4.26275 85.9193 3.92312 85.7818 3.59177L85.7437 3.57521L83.1111 2.4917C83.0465 2.63915 82.9703 2.77997 82.8726 2.90423Z"
        fill="#3A71FD" fill-opacity="0.08" />
    <path
        d="M81.6172 3.5437L81.6338 15.8914L81.6387 19.6455C82.4572 19.7317 83.1049 20.3182 83.3087 21.0753L96.1103 20.9792C95.8419 20.7025 95.5503 20.4557 95.2389 20.2469C95.1726 20.2022 95.1345 20.1243 95.1428 20.0431C95.2091 19.4368 95.2074 18.8221 95.1378 18.2191C95.1047 17.949 95.0566 17.6724 94.9904 17.3725L94.0493 16.2989L82.5582 3.1991C82.2898 3.40122 81.9668 3.52382 81.6172 3.5437Z"
        fill="#3A71FD" fill-opacity="0.08" />
    <path
        d="M-4.51124 36.2709L-4.70508 36.0273C-4.41184 37.5549 -3.90653 39.0194 -3.19413 40.3928L-2.52481 40.8319L0.954337 43.1116L-4.51124 36.2709Z"
        fill="#3A71FD" fill-opacity="0.08" />
    <path
        d="M34.0604 13.2836C34.0919 12.9075 34.2327 12.5646 34.4448 12.2829L21.8602 -0.112793C21.6283 0.0876722 21.3483 0.225182 21.0435 0.299735L22.0342 14.3389L22.8062 25.2833C23.2502 25.3314 23.6429 25.5318 23.9427 25.8267L34.7099 14.8873C34.2708 14.4947 34.0074 13.9148 34.0604 13.2836Z"
        fill="#3A71FD" fill-opacity="0.08" />
    <path
        d="M84.5312 38.4262L84.5959 44.8262H84.5992C85.58 44.9057 86.3238 45.7026 86.3752 46.6569L96.0903 47.2169L88.5157 40.6396L85.4159 37.9491C85.1707 38.1844 84.8692 38.3467 84.5312 38.4262Z"
        fill="#3A71FD" fill-opacity="0.08" />
    <path
        d="M1.68603 28.9614L-4.74543 30.1344C-5.02541 31.6934 -5.07512 33.2789 -4.89122 34.8495C-4.88294 34.9257 -4.87134 35.0019 -4.85974 35.0764L-4.84814 35.1576L1.81028 43.491L2.51605 36.8475L3.21022 30.3216C2.47298 30.1907 1.8898 29.6556 1.68603 28.9614Z"
        fill="#3A71FD" fill-opacity="0.08" />
    <path
        d="M64.4861 66.7415C64.5126 66.7613 64.5358 66.7845 64.5523 66.816C65.6955 68.8753 66.6812 71.1931 67.4814 73.7064L75.394 71.3025L75.3973 71.2577L64.332 49.8494L60.9937 62.7239C61.8055 64.3359 63.0099 65.7226 64.4861 66.7415Z"
        fill="#3A71FD" fill-opacity="0.08" />
    <path
        d="M3.70368 26.4746C3.94225 26.4945 4.16425 26.5624 4.36969 26.6585L19.5305 0.0396973C19.2985 -0.111066 19.1014 -0.306561 18.9539 -0.540161L14.1279 1.63845L8.59934 4.13515C6.78687 6.0785 5.46976 8.44763 4.79381 10.9891C4.78221 11.0388 4.75239 11.0818 4.71098 11.11C0.643687 14.001 -1.88947 18.6896 -2.06839 23.6532C-2.06839 23.6946 -2.08165 23.736 -2.1065 23.7675C-2.39477 24.1833 -2.67476 24.6306 -2.93652 25.0995L1.69737 27.2483L1.926 27.3543C2.30374 26.7794 2.96975 26.4149 3.70368 26.4746Z"
        fill="#3A71FD" fill-opacity="0.08" />
    <path
        d="M2.07174 44.3193L1.96571 44.5331L1.34277 45.7889C3.60753 47.5185 6.28482 48.6103 9.10127 48.9632L9.41605 48.9317L11.7835 48.7014L8.43029 47.1888L2.07174 44.3193Z"
        fill="#3A71FD" fill-opacity="0.08" />
    <path
        d="M36.1543 11.501C36.5735 11.5358 36.9479 11.7031 37.2461 11.9549L38.9741 9.70672C38.477 9.31739 38.1772 8.69446 38.2318 8.01685C38.2418 7.881 38.2666 7.74846 38.3047 7.62255L22.2211 -0.545166C22.1963 -0.508718 22.1748 -0.470613 22.1499 -0.435821L34.7361 11.9615C35.1155 11.6385 35.6192 11.4579 36.1543 11.501Z"
        fill="#3A71FD" fill-opacity="0.08" />
    <path
        d="M27.5723 55.8567C29.3599 57.5002 31.4971 58.7627 33.795 59.533L31.5451 55.7457L30.5925 54.1437L27.5723 55.8567Z"
        fill="#3A71FD" fill-opacity="0.08" />
    <path
        d="M-2.73926 41.2063C-1.7651 42.8432 -0.48941 44.3176 0.995027 45.5171L1.20212 45.0996L1.69251 44.1122L-2.73926 41.2063Z"
        fill="#3A71FD" fill-opacity="0.08" />
    <path
        d="M40.0128 10.116C39.7742 10.0961 39.5522 10.0282 39.3468 9.9321L37.5459 12.2764C37.8226 12.6442 37.9767 13.1064 37.9369 13.5985L51.0632 14.5113L49.6716 13.7525L41.6828 9.39697C41.2918 9.88074 40.6788 10.169 40.0128 10.116Z"
        fill="#3A71FD" fill-opacity="0.08" />
    <path
        d="M38.9528 51.7861C38.9396 51.6668 38.9346 51.5442 38.9462 51.42C38.9727 51.0953 39.0854 50.8004 39.2494 50.5419L33.0118 45.5303C32.692 45.9279 32.2182 46.1913 31.6897 46.2443L30.916 53.5737L33.8899 52.9127L38.9528 51.7861Z"
        fill="#3A71FD" fill-opacity="0.08" />
    <path
        d="M25.3721 53.4032C25.9354 54.1686 26.5633 54.8876 27.2409 55.5454L29.9927 53.9847L28.3343 53.776L25.3721 53.4032Z"
        fill="#3A71FD" fill-opacity="0.08" />
    <path
        d="M5.95066 34.1984L4.21275 30.2388C4.03382 30.305 3.84164 30.3415 3.64448 30.3498L3.38935 32.7388L2.20312 43.9019L5.64582 45.4559L12.1866 48.4065L5.95066 34.1984Z"
        fill="#3A71FD" fill-opacity="0.08" />
    <path
        d="M64.019 47.8731L63.6263 30.3282L60.9043 47.3545C61.6034 47.6296 62.0922 48.2873 62.1319 49.0593L62.9586 49.0477L64.0438 49.0328L64.019 47.8731Z"
        fill="#3A71FD" fill-opacity="0.08" />
    <path
        d="M60.9243 9.90553L61.4346 12.8877L63.6066 25.5849C63.7143 25.5749 63.8253 25.5683 63.9363 25.5783C64.0721 25.5899 64.2013 25.6147 64.3256 25.6512L68.9363 11.9135L69.4515 10.376C68.8651 10.053 68.4774 9.43833 68.4542 8.7425L62.2928 8.37305C62.1636 9.11692 61.6235 9.70341 60.9243 9.90553Z"
        fill="#3A71FD" fill-opacity="0.08" />
    <path
        d="M48.2852 2.09901L58.7375 7.02614C59.1103 6.42475 59.7912 6.04204 60.5434 6.10334C60.8532 6.12819 61.1331 6.22925 61.3817 6.38001L65.6908 0.733857C65.4158 0.470436 65.2236 0.130805 65.1391 -0.250244L48.3862 1.48933C48.3862 1.53737 48.3928 1.58376 48.3879 1.63015C48.3746 1.79417 48.3349 1.9499 48.2852 2.09901Z"
        fill="#3A71FD" fill-opacity="0.08" />
    <path
        d="M5.45526 28.0717L17.0193 27.452L20.6525 27.2566C20.6509 27.1886 20.6426 27.1224 20.6475 27.0544C20.7238 26.1134 21.4627 25.3828 22.3689 25.2801L20.6111 0.351147C20.5515 0.351147 20.4918 0.359432 20.4305 0.354462C20.2499 0.339552 20.0809 0.293163 19.9186 0.233521L4.74121 26.8805C5.11398 27.1737 5.36911 27.5962 5.45526 28.0717Z"
        fill="#3A71FD" fill-opacity="0.08" />
    <path
        d="M52.1132 15.2056L50.2544 20.0979C50.932 20.4475 51.371 21.1781 51.3064 21.9849C51.2948 22.1224 51.27 22.2566 51.2319 22.3825L61.9327 26.9154C61.9891 26.7464 62.0686 26.5907 62.1663 26.4465L61.9543 26.208L52.1132 15.2056Z"
        fill="#3A71FD" fill-opacity="0.08" />
    <path
        d="M62.4451 26.1117C62.6538 25.9129 62.9007 25.7572 63.179 25.6661L60.4951 9.97512C60.4073 9.98009 60.3195 9.98838 60.2284 9.98009C59.7545 9.94199 59.3404 9.72992 59.0256 9.41846L52.3506 14.8211L62.243 25.8848L62.4451 26.1117Z"
        fill="#3A71FD" fill-opacity="0.08" />
    <path
        d="M22.4141 -0.932898L38.4794 7.22487C38.6932 6.84548 39.0278 6.55389 39.4271 6.38657L38.1431 2.23644L36.0374 -4.56281C35.9181 -4.54955 35.7955 -4.54458 35.6729 -4.55618C35.0019 -4.61085 34.437 -5.0035 34.1305 -5.55188L22.5002 -1.9054C22.5267 -1.74967 22.54 -1.59062 22.5267 -1.42826C22.5135 -1.25265 22.4704 -1.08863 22.4141 -0.932898Z"
        fill="#3A71FD" fill-opacity="0.08" />
    <path
        d="M80.0235 2.68384L72.0911 7.73026C72.2716 8.05498 72.3628 8.43603 72.3313 8.8353C72.2948 9.3025 72.0861 9.71337 71.7812 10.0265L77.386 16.3917L80.4675 19.8924C80.6912 19.7631 80.9413 19.677 81.2064 19.6455L81.1849 3.51221C80.6846 3.41115 80.2654 3.10465 80.0235 2.68384Z"
        fill="#3A71FD" fill-opacity="0.08" />
    <path
        d="M75.3546 71.9157C75.3546 71.871 75.3579 71.8196 75.3612 71.7633L71.5541 72.9197L67.6094 74.1208C69.0391 78.7812 69.8311 84.0695 69.9636 89.8565L75.3546 71.9157Z"
        fill="#3A71FD" fill-opacity="0.08" />
    <path
        d="M47.8364 20.6296C48.2257 20.1343 48.8487 19.8344 49.5246 19.8891C49.6373 19.8974 49.745 19.9222 49.8493 19.9487L51.7331 14.9918L37.8513 14.0259C37.8132 14.1485 37.7618 14.2644 37.7021 14.3738L47.8364 20.6296Z"
        fill="#3A71FD" fill-opacity="0.08" />
    <path
        d="M69.8522 10.5451L67.9354 16.2608L64.7246 25.8235C65.2581 26.1234 65.6342 26.6602 65.7104 27.2831L78.391 24.4285L75.22 18.4444L71.0186 10.5153C70.7734 10.5998 70.5066 10.6379 70.2316 10.6147C70.1024 10.6047 69.9748 10.5799 69.8522 10.5451Z"
        fill="#3A71FD" fill-opacity="0.08" />
    <path
        d="M44.8624 36.0836L39.0406 38.5174C39.0622 38.6615 39.0738 38.8106 39.0605 38.963C39.039 39.2264 38.9644 39.4766 38.8501 39.6969L58.3665 48.191L58.4824 48.2407C58.837 47.5814 59.5593 47.1539 60.3545 47.2185C60.3993 47.2218 60.4407 47.2368 60.4838 47.2434L63.335 29.4053C62.9275 29.3076 62.5713 29.0938 62.3111 28.7906L44.8624 36.0836Z"
        fill="#3A71FD" fill-opacity="0.08" />
    <path
        d="M82.1484 36.3852C82.1583 36.2659 82.1815 36.1499 82.2113 36.0389L65.2414 28.7924C65.0326 29.0293 64.7709 29.2148 64.4727 29.3275L68.3577 41.1516L70.0691 46.3621C70.248 46.3256 70.4319 46.3024 70.6225 46.319C71.0847 46.3554 71.4906 46.5609 71.8021 46.8574L78.3627 41.3736L82.6189 37.8166C82.2892 37.4322 82.1053 36.9269 82.1484 36.3852Z"
        fill="#3A71FD" fill-opacity="0.08" />
</svg>
