<svg width="14" height="16" viewBox="0 0 14 16" fill="none" xmlns="http://www.w3.org/2000/svg">
    <path d="M13.185 6.96098L2.10217 0.181149C1.91532 0.0667307 1.70131 0.00426776 1.48224 0.000211031C1.26318 -0.0038457 1.04701 0.0506508 0.856045 0.158072C0.666904 0.263826 0.509343 0.41805 0.399567 0.604885C0.289791 0.791721 0.231761 1.00442 0.231445 1.22112V14.7793C0.23287 15.1043 0.363314 15.4155 0.594101 15.6444C0.824888 15.8733 1.13713 16.0012 1.46218 16C1.68906 15.9999 1.91154 15.9374 2.10525 15.8192L13.185 9.03939C13.3631 8.93084 13.5103 8.77831 13.6124 8.59645C13.7145 8.4146 13.7682 8.20953 13.7682 8.00096C13.7682 7.79238 13.7145 7.58732 13.6124 7.40546C13.5103 7.22361 13.3631 7.07107 13.185 6.96252V6.96098ZM1.46218 14.7646V1.23112L12.5258 8.00019L1.46218 14.7646Z" fill="#242424"/>
</svg>
