<svg width="20" height="20" viewBox="0 0 20 20" fill="none" xmlns="http://www.w3.org/2000/svg">
    <path
        d="M10.0009 5.81796C9.17377 5.81796 8.3652 6.06323 7.67745 6.52277C6.98971 6.9823 6.45368 7.63546 6.13715 8.39964C5.82061 9.16382 5.73779 10.0047 5.89916 10.8159C6.06053 11.6272 6.45884 12.3724 7.04371 12.9573C7.62859 13.5421 8.37377 13.9404 9.18502 14.1018C9.99627 14.2632 10.8371 14.1804 11.6013 13.8638C12.3655 13.5473 13.0187 13.0113 13.4782 12.3235C13.9377 11.6358 14.183 10.8272 14.183 10.0001C14.1816 8.89134 13.7405 7.82844 12.9565 7.04446C12.1725 6.26048 11.1096 5.8194 10.0009 5.81796ZM10.0009 13.0912C9.38954 13.0912 8.7919 12.9099 8.28357 12.5702C7.77524 12.2306 7.37904 11.7478 7.14508 11.183C6.91113 10.6181 6.84991 9.99663 6.96918 9.39701C7.08845 8.79739 7.38285 8.24661 7.81516 7.81431C8.24746 7.38201 8.79824 7.0876 9.39786 6.96833C9.99748 6.84906 10.619 6.91028 11.1838 7.14424C11.7487 7.3782 12.2314 7.77439 12.5711 8.28272C12.9107 8.79106 13.092 9.38869 13.092 10.0001C13.092 10.8199 12.7664 11.6061 12.1867 12.1858C11.607 12.7655 10.8207 13.0912 10.0009 13.0912ZM19.8198 8.14539C19.8039 8.06937 19.7721 7.9976 19.7263 7.93489C19.6805 7.87217 19.6219 7.81996 19.5543 7.78173L16.7868 6.20162L16.7486 6.13707L16.7377 3.01777C16.7377 2.93897 16.7207 2.86112 16.6877 2.78955C16.6548 2.71798 16.6067 2.65441 16.5468 2.60319C15.5803 1.78593 14.4675 1.15936 13.2675 0.756702C13.1954 0.732446 13.1189 0.723556 13.0431 0.730602C12.9674 0.737648 12.8939 0.760474 12.8275 0.797614L10.0427 2.35045H9.95181L7.17435 0.795796C7.10761 0.758546 7.03379 0.735737 6.95768 0.728846C6.88156 0.721954 6.80484 0.731135 6.7325 0.755793C5.53262 1.15963 4.42039 1.78778 3.45501 2.60683C3.39492 2.65777 3.34657 2.72113 3.3133 2.79254C3.28003 2.86394 3.26262 2.94171 3.26227 3.02049L3.24772 6.14252C3.23499 6.16343 3.22226 6.18525 3.21045 6.20707L0.44662 7.779C0.378698 7.81781 0.319919 7.87078 0.274271 7.93431C0.228623 7.99784 0.197174 8.07045 0.182057 8.1472C-0.0606857 9.37113 -0.0606857 10.6308 0.182057 11.8547C0.197876 11.9307 0.229741 12.0025 0.275522 12.0652C0.321304 12.1279 0.379946 12.1802 0.44753 12.2184L3.21317 13.794L3.25136 13.8585L3.26227 16.9778C3.26182 17.0575 3.27885 17.1363 3.31215 17.2087C3.34545 17.2812 3.39421 17.3454 3.45501 17.3969C4.42156 18.2142 5.53432 18.8408 6.73432 19.2434C6.80646 19.2677 6.88288 19.2766 6.95866 19.2695C7.03445 19.2625 7.10792 19.2396 7.17435 19.2025L9.95727 17.6497H10.0482L12.8266 19.2043C12.9078 19.2493 12.9991 19.273 13.092 19.2734C13.1517 19.2737 13.2111 19.2638 13.2675 19.2443C14.4658 18.84 15.5764 18.2118 16.5404 17.3933C16.6005 17.3423 16.6489 17.279 16.6821 17.2076C16.7154 17.1362 16.7328 17.0584 16.7332 16.9796L16.7477 13.8576C16.7605 13.8367 16.7732 13.8149 16.785 13.793L19.5506 12.2211C19.6187 12.1824 19.6777 12.1295 19.7235 12.0659C19.7693 12.0024 19.8009 11.9297 19.8161 11.8529C20.0601 10.6292 20.0613 9.36955 19.8198 8.14539ZM18.797 11.3992L16.1213 12.9184C16.0346 12.9681 15.9629 13.0404 15.914 13.1275C15.8604 13.2185 15.804 13.3194 15.7449 13.413C15.6911 13.4992 15.6625 13.5987 15.6622 13.7003L15.6477 16.7196C14.8954 17.3223 14.0504 17.7991 13.1457 18.1315L10.4555 16.626C10.3741 16.5802 10.2824 16.5561 10.1891 16.556H10.1764C10.0636 16.556 9.94909 16.556 9.83635 16.556C9.73881 16.5536 9.64242 16.5775 9.55724 16.6251L6.85978 18.1306C5.95386 17.7999 5.10765 17.3243 4.35416 16.7223L4.34325 13.7067C4.34296 13.6051 4.31431 13.5056 4.26052 13.4194C4.20233 13.3285 4.14505 13.2303 4.09141 13.1339C4.04304 13.0466 3.97166 12.9743 3.88504 12.9248L1.2094 11.4002C1.05386 10.4735 1.05386 9.52748 1.2094 8.60087L3.88049 7.08168C3.96859 7.03256 4.04154 6.96024 4.09141 6.87257C4.14505 6.78166 4.20142 6.68074 4.26052 6.5871C4.31431 6.50091 4.34296 6.40141 4.34325 6.29981L4.3578 3.28051C5.10895 2.67817 5.95264 2.20136 6.85615 1.8686L9.54633 3.37415C9.63119 3.42255 9.7278 3.44647 9.82544 3.44325C9.93818 3.44325 10.0527 3.44325 10.1655 3.44325C10.263 3.44559 10.3594 3.42173 10.4446 3.37415L13.1402 1.8686C14.0461 2.19932 14.8923 2.67493 15.6458 3.27687L15.6567 6.29253C15.657 6.39413 15.6857 6.49363 15.7395 6.57982C15.7977 6.67074 15.8549 6.76893 15.9086 6.8653C15.957 6.95256 16.0283 7.02489 16.115 7.0744L18.7924 8.59996C18.9489 9.52642 18.9498 10.4725 18.7951 11.3992H18.797Z"
        fill="#181818" />
</svg>
