<svg width="14" height="14" viewBox="0 0 14 14" fill="none" xmlns="http://www.w3.org/2000/svg">
    <path
        d="M14 0.636364V4.45455C14 4.62332 13.933 4.78518 13.8136 4.90452C13.6943 5.02386 13.5324 5.09091 13.3636 5.09091C13.1949 5.09091 13.033 5.02386 12.9137 4.90452C12.7943 4.78518 12.7273 4.62332 12.7273 4.45455V2.17239L8.72295 6.1775C8.60355 6.29691 8.4416 6.36399 8.27273 6.36399C8.10386 6.36399 7.94191 6.29691 7.8225 6.1775C7.70309 6.05809 7.63601 5.89614 7.63601 5.72727C7.63601 5.5584 7.70309 5.39645 7.8225 5.27705L11.8276 1.27273H9.54545C9.37668 1.27273 9.21482 1.20568 9.09548 1.08634C8.97614 0.966999 8.90909 0.805138 8.90909 0.636364C8.90909 0.467589 8.97614 0.305728 9.09548 0.186387C9.21482 0.0670454 9.37668 0 9.54545 0H13.3636C13.5324 0 13.6943 0.0670454 13.8136 0.186387C13.933 0.305728 14 0.467589 14 0.636364ZM5.27705 7.8225L1.27273 11.8276V9.54545C1.27273 9.37668 1.20568 9.21482 1.08634 9.09548C0.966999 8.97614 0.805138 8.90909 0.636364 8.90909C0.467589 8.90909 0.305728 8.97614 0.186387 9.09548C0.0670454 9.21482 0 9.37668 0 9.54545V13.3636C0 13.5324 0.0670454 13.6943 0.186387 13.8136C0.305728 13.933 0.467589 14 0.636364 14H4.45455C4.62332 14 4.78518 13.933 4.90452 13.8136C5.02386 13.6943 5.09091 13.5324 5.09091 13.3636C5.09091 13.1949 5.02386 13.033 4.90452 12.9137C4.78518 12.7943 4.62332 12.7273 4.45455 12.7273H2.17239L6.1775 8.72295C6.29691 8.60355 6.36399 8.4416 6.36399 8.27273C6.36399 8.10386 6.29691 7.94191 6.1775 7.8225C6.05809 7.70309 5.89614 7.63601 5.72727 7.63601C5.5584 7.63601 5.39645 7.70309 5.27705 7.8225Z"
        fill="#242424" />
</svg>